{
  "accessors": [
    {
      "bufferView": 0,
      "componentType": 5126,
      "count": 220,
      "max": [
        0.14355692267417908,
        0.04819782078266144,
        0.1470026969909668
      ],
      "min": [
        -0.14355692267417908,
        -0.037651438266038895,
        -0.1470026969909668
      ],
      "type": "VEC3"
    },
    {
      "bufferView": 1,
      "componentType": 5126,
      "count": 220,
      "type": "VEC3"
    },
    {
      "bufferView": 2,
      "componentType": 5126,
      "count": 220,
      "type": "VEC2"
    },
    {
      "bufferView": 3,
      "componentType": 5125,
      "count": 300,
      "type": "SCALAR"
    },
    {
      "bufferView": 4,
      "componentType": 5126,
      "count": 160,
      "max": [
        0.21300922334194183,
        0.17013099789619446,
        0.2035718560218811
      ],
      "min": [
        -0.21300922334194183,
        -0.17013099789619446,
        -0.2035718560218811
      ],
      "type": "VEC3"
    },
    {
      "bufferView": 5,
      "componentType": 5126,
      "count": 160,
      "type": "VEC3"
    },
    {
      "bufferView": 6,
      "componentType": 5126,
      "count": 160,
      "type": "VEC2"
    },
    {
      "bufferView": 7,
      "componentType": 5125,
      "count": 240,
      "type": "SCALAR"
    },
    {
      "bufferView": 8,
      "componentType": 5126,
      "count": 280,
      "max": [
        0.19780880212783813,
        0.44236651062965393,
        0.1828637570142746
      ],
      "min": [
        -0.19780880212783813,
        -0.3549206256866455,
        -0.1828637570142746
      ],
      "type": "VEC3"
    },
    {
      "bufferView": 9,
      "componentType": 5126,
      "count": 280,
      "type": "VEC3"
    },
    {
      "bufferView": 10,
      "componentType": 5126,
      "count": 280,
      "type": "VEC2"
    },
    {
      "bufferView": 11,
      "componentType": 5125,
      "count": 360,
      "type": "SCALAR"
    },
    {
      "bufferView": 12,
      "componentType": 5126,
      "count": 280,
      "max": [
        0.20917050540447235,
        0.5984745621681213,
        0.20202668011188507
      ],
      "min": [
        -0.20917050540447235,
        -0.44657832384109497,
        -0.20202668011188507
      ],
      "type": "VEC3"
    },
    {
      "bufferView": 13,
      "componentType": 5126,
      "count": 280,
      "type": "VEC3"
    },
    {
      "bufferView": 14,
      "componentType": 5126,
      "count": 280,
      "type": "VEC2"
    },
    {
      "bufferView": 15,
      "componentType": 5125,
      "count": 360,
      "type": "SCALAR"
    }
  ],
  "asset": {
    "generator": "Prisma3D Pro",
    "version": "2.0"
  },
  "bufferViews": [
    {
      "buffer": 0,
      "byteLength": 2640,
      "target": 34962
    },
    {
      "buffer": 1,
      "byteLength": 2640,
      "target": 34962
    },
    {
      "buffer": 2,
      "byteLength": 1760,
      "target": 34962
    },
    {
      "buffer": 3,
      "byteLength": 1200,
      "target": 34963
    },
    {
      "buffer": 4,
      "byteLength": 1920,
      "target": 34962
    },
    {
      "buffer": 5,
      "byteLength": 1920,
      "target": 34962
    },
    {
      "buffer": 6,
      "byteLength": 1280,
      "target": 34962
    },
    {
      "buffer": 7,
      "byteLength": 960,
      "target": 34963
    },
    {
      "buffer": 8,
      "byteLength": 3360,
      "target": 34962
    },
    {
      "buffer": 9,
      "byteLength": 3360,
      "target": 34962
    },
    {
      "buffer": 10,
      "byteLength": 2240,
      "target": 34962
    },
    {
      "buffer": 11,
      "byteLength": 1440,
      "target": 34963
    },
    {
      "buffer": 12,
      "byteLength": 3360,
      "target": 34962
    },
    {
      "buffer": 13,
      "byteLength": 3360,
      "target": 34962
    },
    {
      "buffer": 14,
      "byteLength": 2240,
      "target": 34962
    },
    {
      "buffer": 15,
      "byteLength": 1440,
      "target": 34963
    }
  ],
  "buffers": [
    {
      "byteLength": 2640,
      "uri": "data:application/octet-stream;base64,"
    },
    {
      "byteLength": 2640,
      "uri": "data:application/octet-stream;base64,"
    },
    {
      "byteLength": 1760,
      "uri": "data:application/octet-stream;base64,"
    },
    {
      "byteLength": 1200,
      "uri": "data:application/octet-stream;base64,"
    },
    {
      "byteLength": 1920,
      "uri": "data:application/octet-stream;base64,"
    },
    {
      "byteLength": 1920,
      "uri": "data:application/octet-stream;base64,"
    },
    {
      "byteLength": 1280,
      "uri": "data:application/octet-stream;base64,"
    },
    {
      "byteLength": 960,
      "uri": "data:application/octet-stream;base64,"
    },
    {
      "byteLength": 3360,
      "uri": "data:application/octet-stream;base64,"
    },
    {
      "byteLength": 3360,
      "uri": "data:application/octet-stream;base64,"
    },
    {
      "byteLength": 2240,
      "uri": "data:application/octet-stream;base64,"
    },
    {
      "byteLength": 1440,
      "uri": "data:application/octet-stream;base64,"
    },
    {
      "byteLength": 3360,
      "uri": "data:application/octet-stream;base64,"
    },
    {
      "byteLength": 3360,
      "uri": "data:application/octet-stream;base64,"
    },
    {
      "byteLength": 2240,
      "uri": "data:application/octet-stream;base64,"
    },
    {
      "byteLength": 1440,
      "uri": "data:application/octet-stream;base64,"
    }
  ],
  "materials": [
    {
      "doubleSided": true,
      "pbrMetallicRoughness": {
        "baseColorFactor": [
          0.0,
          0.33333349227905273,
          1.0,
          1.0
        ],
        "metallicFactor": 0.75,
        "roughnessFactor": 0.0
      }
    },
    {
      "doubleSided": true,
      "pbrMetallicRoughness": {
        "baseColorFactor": [
          0.0,
          0.18823523819446564,
          0.7921568751335144,
          1.0
        ],
        "roughnessFactor": 0.0
      }
    },
    {
      "doubleSided": true,
      "pbrMetallicRoughness": {
        "baseColorFactor": [
          0.19607841968536377,
          0.6705881357192993,
          0.729411780834198,
          1.0
        ],
        "metallicFactor": 0.0,
        "roughnessFactor": 0.0
      }
    },
    {
      "doubleSided": true,
      "pbrMetallicRoughness": {
        "baseColorFactor": [
          0.0,
          0.6826291680335999,
          0.9490196108818054,
          1.0
        ],
        "metallicFactor": 0.75,
        "roughnessFactor": 0.0
      }
    }
  ],
  "meshes": [
    {
      "primitives": [
        {
          "attributes": {
            "NORMAL": 1,
            "POSITION": 0,
            "TEXCOORD_0": 2
          },
          "indices": 3,
          "material": 0,
          "mode": 4
        }
      ]
    },
    {
      "primitives": [
        {
          "attributes": {
            "NORMAL": 5,
            "POSITION": 4,
            "TEXCOORD_0": 6
          },
          "indices": 7,
          "material": 1,
          "mode": 4
        }
      ]
    },
    {
      "primitives": [
        {
          "attributes": {
            "NORMAL": 9,
            "POSITION": 8,
            "TEXCOORD_0": 10
          },
          "indices": 11,
          "material": 2,
          "mode": 4
        }
      ]
    },
    {
      "primitives": [
        {
          "attributes": {
            "NORMAL": 13,
            "POSITION": 12,
            "TEXCOORD_0": 14
          },
          "indices": 15,
          "material": 3,
          "mode": 4
        }
      ]
    }
  ],
  "nodes": [
    {
      "children": [
        2,
        1
      ],
      "name": "botella",
      "rotation": [
        0.0,
        -0.0,
        -0.0,
        1.0
      ],
      "scale": [
        1.0,
        1.0,
        1.0
      ],
      "translation": [
        -0.0,
        0.0,
        0.0
      ]
    },
    {
      "mesh": 0,
      "name": "Tapadera",
      "rotation": [
        0.0,
        -0.0,
        -0.0,
        1.0
      ],
      "scale": [
        1.0,
        1.0,
        1.0
      ],
      "translation": [
        -0.0,
        1.7585577964782715,
        0.0
      ]
    },
    {
      "children": [
        5,
        4,
        3
      ],
      "name": "Botella",
      "rotation": [
        0.0,
        -0.0,
        -0.0,
        1.0
      ],
      "scale": [
        1.0,
        1.0,
        1.0
      ],
      "translation": [
        -0.0,
        1.0957002639770508,
        0.0
      ]
    },
    {
      "mesh": 1,
      "name": "Cilindro",
      "rotation": [
        0.0,
        -0.0,
        -0.0,
        1.0
      ],
      "scale": [
        1.0,
        1.0,
        1.0
      ],
      "translation": [
        -1.179982889176756e-09,
        0.1515136957168579,
        1.2723528897140568e-09
      ]
    },
    {
      "mesh": 2,
      "name": "Cilindro",
      "rotation": [
        0.0,
        -0.0,
        -0.0,
        1.0
      ],
      "scale": [
        1.0,
        1.0,
        1.0
      ],
      "translation": [
        6.855433998254057e-10,
        0.022993922233581543,
        -7.392074730105946e-10
      ]
    },
    {
      "mesh": 3,
      "name": "Cilindro",
      "rotation": [
        0.0,
        -0.0,
        -0.0,
        1.0
      ],
      "scale": [
        1.0,
        1.0,
        1.0
      ],
      "translation": [
        4.944394893513504e-10,
        0.08681762218475342,
        -5.331441954581351e-10
      ]
    }
  ],
  "scenes": [
    {
      "nodes": [
        0
      ]
    }
  ]
}
