{
  "accessors": [
    {
      "bufferView": 0,
      "componentType": 5126,
      "count": 116,
      "max": [
        0.8866059184074402,
        0.7744585275650024,
        0.6809651851654053
      ],
      "min": [
        -1.5743956565856934,
        -0.3447607755661011,
        -0.6637988090515137
      ],
      "type": "VEC3"
    },
    {
      "bufferView": 1,
      "componentType": 5126,
      "count": 116,
      "type": "VEC3"
    },
    {
      "bufferView": 2,
      "componentType": 5126,
      "count": 116,
      "type": "VEC2"
    },
    {
      "bufferView": 3,
      "componentType": 5125,
      "count": 174,
      "type": "SCALAR"
    },
    {
      "bufferView": 4,
      "componentType": 5126,
      "count": 20,
      "max": [
        0.17145174741744995,
        0.26420652866363525,
        0.5
      ],
      "min": [
        -0.23330238461494446,
        -0.21484887599945068,
        -0.5
      ],
      "type": "VEC3"
    },
    {
      "bufferView": 5,
      "componentType": 5126,
      "count": 20,
      "type": "VEC3"
    },
    {
      "bufferView": 6,
      "componentType": 5126,
      "count": 20,
      "type": "VEC2"
    },
    {
      "bufferView": 7,
      "componentType": 5125,
      "count": 30,
      "type": "SCALAR"
    },
    {
      "bufferView": 8,
      "componentType": 5126,
      "count": 20,
      "max": [
        0.6191911101341248,
        0.19961905479431152,
        0.0
      ],
      "min": [
        -0.6191911101341248,
        -0.21484890580177307,
        -0.06035981327295303
      ],
      "type": "VEC3"
    },
    {
      "bufferView": 9,
      "componentType": 5126,
      "count": 20,
      "type": "VEC3"
    },
    {
      "bufferView": 10,
      "componentType": 5126,
      "count": 20,
      "type": "VEC2"
    },
    {
      "bufferView": 11,
      "componentType": 5125,
      "count": 30,
      "type": "SCALAR"
    },
    {
      "bufferView": 12,
      "componentType": 5126,
      "count": 20,
      "max": [
        0.4688229560852051,
        0.20882125198841095,
        0.1108226627111435
      ],
      "min": [
        -0.4688229560852051,
        -0.21484893560409546,
        -2.0813045011891518e-06
      ],
      "type": "VEC3"
    },
    {
      "bufferView": 13,
      "componentType": 5126,
      "count": 20,
      "type": "VEC3"
    },
    {
      "bufferView": 14,
      "componentType": 5126,
      "count": 20,
      "type": "VEC2"
    },
    {
      "bufferView": 15,
      "componentType": 5125,
      "count": 30,
      "type": "SCALAR"
    },
    {
      "bufferView": 16,
      "componentType": 5126,
      "count": 20,
      "max": [
        0.6144022941589355,
        0.3447607457637787,
        0.0
      ],
      "min": [
        -0.6144022941589355,
        -0.3447607457637787,
        -0.10159431397914886
      ],
      "type": "VEC3"
    },
    {
      "bufferView": 17,
      "componentType": 5126,
      "count": 20,
      "type": "VEC3"
    },
    {
      "bufferView": 18,
      "componentType": 5126,
      "count": 20,
      "type": "VEC2"
    },
    {
      "bufferView": 19,
      "componentType": 5125,
      "count": 30,
      "type": "SCALAR"
    },
    {
      "bufferView": 20,
      "componentType": 5126,
      "count": 20,
      "max": [
        0.4646921753883362,
        0.3447607755661011,
        0.13285742700099945
      ],
      "min": [
        -0.4646921753883362,
        -0.3447607755661011,
        0.0
      ],
      "type": "VEC3"
    },
    {
      "bufferView": 21,
      "componentType": 5126,
      "count": 20,
      "type": "VEC3"
    },
    {
      "bufferView": 22,
      "componentType": 5126,
      "count": 20,
      "type": "VEC2"
    },
    {
      "bufferView": 23,
      "componentType": 5125,
      "count": 30,
      "type": "SCALAR"
    },
    {
      "bufferView": 24,
      "componentType": 5126,
      "count": 760,
      "max": [
        0.11200001090765,
        0.11200001090765,
        0.11200001090765
      ],
      "min": [
        -0.11200001090765,
        -0.11200001090765,
        -0.11200001090765
      ],
      "type": "VEC3"
    },
    {
      "bufferView": 25,
      "componentType": 5126,
      "count": 760,
      "type": "VEC3"
    },
    {
      "bufferView": 26,
      "componentType": 5126,
      "count": 760,
      "type": "VEC2"
    },
    {
      "bufferView": 27,
      "componentType": 5125,
      "count": 1080,
      "type": "SCALAR"
    },
    {
      "bufferView": 28,
      "componentType": 5126,
      "count": 760,
      "max": [
        0.11200001090765,
        0.11200001090765,
        0.11200001090765
      ],
      "min": [
        -0.11200001090765,
        -0.11200001090765,
        -0.11200001090765
      ],
      "type": "VEC3"
    },
    {
      "bufferView": 29,
      "componentType": 5126,
      "count": 760,
      "type": "VEC3"
    },
    {
      "bufferView": 30,
      "componentType": 5126,
      "count": 760,
      "type": "VEC2"
    },
    {
      "bufferView": 31,
      "componentType": 5125,
      "count": 1080,
      "type": "SCALAR"
    },
    {
      "bufferView": 32,
      "componentType": 5126,
      "count": 88,
      "max": [
        0.2198885828256607,
        0.14030827581882477,
        0.21994930505752563
      ],
      "min": [
        -0.22082003951072693,
        -0.14030829071998596,
        -0.21913515031337738
      ],
      "type": "VEC3"
    },
    {
      "bufferView": 33,
      "componentType": 5126,
      "count": 88,
      "type": "VEC3"
    },
    {
      "bufferView": 34,
      "componentType": 5126,
      "count": 88,
      "type": "VEC2"
    },
    {
      "bufferView": 35,
      "componentType": 5125,
      "count": 132,
      "type": "SCALAR"
    },
    {
      "bufferView": 36,
      "componentType": 5126,
      "count": 88,
      "max": [
        0.2198885828256607,
        0.14030821621418,
        0.21994930505752563
      ],
      "min": [
        -0.22082003951072693,
        -0.14030835032463074,
        -0.21913515031337738
      ],
      "type": "VEC3"
    },
    {
      "bufferView": 37,
      "componentType": 5126,
      "count": 88,
      "type": "VEC3"
    },
    {
      "bufferView": 38,
      "componentType": 5126,
      "count": 88,
      "type": "VEC2"
    },
    {
      "bufferView": 39,
      "componentType": 5125,
      "count": 132,
      "type": "SCALAR"
    },
    {
      "bufferView": 40,
      "componentType": 5126,
      "count": 88,
      "max": [
        0.2198885828256607,
        0.14030827581882477,
        0.21994930505752563
      ],
      "min": [
        -0.22082003951072693,
        -0.14030829071998596,
        -0.21913515031337738
      ],
      "type": "VEC3"
    },
    {
      "bufferView": 41,
      "componentType": 5126,
      "count": 88,
      "type": "VEC3"
    },
    {
      "bufferView": 42,
      "componentType": 5126,
      "count": 88,
      "type": "VEC2"
    },
    {
      "bufferView": 43,
      "componentType": 5125,
      "count": 132,
      "type": "SCALAR"
    },
    {
      "bufferView": 44,
      "componentType": 5126,
      "count": 88,
      "max": [
        0.2198885828256607,
        0.14030827581882477,
        0.2199493646621704
      ],
      "min": [
        -0.22082003951072693,
        -0.14030829071998596,
        -0.2191350907087326
      ],
      "type": "VEC3"
    },
    {
      "bufferView": 45,
      "componentType": 5126,
      "count": 88,
      "type": "VEC3"
    },
    {
      "bufferView": 46,
      "componentType": 5126,
      "count": 88,
      "type": "VEC2"
    },
    {
      "bufferView": 47,
      "componentType": 5125,
      "count": 132,
      "type": "SCALAR"
    }
  ],
  "asset": {
    "generator": "Prisma3D Pro",
    "version": "2.0"
  },
  "bufferViews": [
    {
      "buffer": 0,
      "byteLength": 1392,
      "target": 34962
    },
    {
      "buffer": 1,
      "byteLength": 1392,
      "target": 34962
    },
    {
      "buffer": 2,
      "byteLength": 928,
      "target": 34962
    },
    {
      "buffer": 3,
      "byteLength": 696,
      "target": 34963
    },
    {
      "buffer": 4,
      "byteLength": 240,
      "target": 34962
    },
    {
      "buffer": 5,
      "byteLength": 240,
      "target": 34962
    },
    {
      "buffer": 6,
      "byteLength": 160,
      "target": 34962
    },
    {
      "buffer": 7,
      "byteLength": 120,
      "target": 34963
    },
    {
      "buffer": 8,
      "byteLength": 240,
      "target": 34962
    },
    {
      "buffer": 9,
      "byteLength": 240,
      "target": 34962
    },
    {
      "buffer": 10,
      "byteLength": 160,
      "target": 34962
    },
    {
      "buffer": 11,
      "byteLength": 120,
      "target": 34963
    },
    {
      "buffer": 12,
      "byteLength": 240,
      "target": 34962
    },
    {
      "buffer": 13,
      "byteLength": 240,
      "target": 34962
    },
    {
      "buffer": 14,
      "byteLength": 160,
      "target": 34962
    },
    {
      "buffer": 15,
      "byteLength": 120,
      "target": 34963
    },
    {
      "buffer": 16,
      "byteLength": 240,
      "target": 34962
    },
    {
      "buffer": 17,
      "byteLength": 240,
      "target": 34962
    },
    {
      "buffer": 18,
      "byteLength": 160,
      "target": 34962
    },
    {
      "buffer": 19,
      "byteLength": 120,
      "target": 34963
    },
    {
      "buffer": 20,
      "byteLength": 240,
      "target": 34962
    },
    {
      "buffer": 21,
      "byteLength": 240,
      "target": 34962
    },
    {
      "buffer": 22,
      "byteLength": 160,
      "target": 34962
    },
    {
      "buffer": 23,
      "byteLength": 120,
      "target": 34963
    },
    {
      "buffer": 24,
      "byteLength": 9120,
      "target": 34962
    },
    {
      "buffer": 25,
      "byteLength": 9120,
      "target": 34962
    },
    {
      "buffer": 26,
      "byteLength": 6080,
      "target": 34962
    },
    {
      "buffer": 27,
      "byteLength": 4320,
      "target": 34963
    },
    {
      "buffer": 28,
      "byteLength": 9120,
      "target": 34962
    },
    {
      "buffer": 29,
      "byteLength": 9120,
      "target": 34962
    },
    {
      "buffer": 30,
      "byteLength": 6080,
      "target": 34962
    },
    {
      "buffer": 31,
      "byteLength": 4320,
      "target": 34963
    },
    {
      "buffer": 32,
      "byteLength": 1056,
      "target": 34962
    },
    {
      "buffer": 33,
      "byteLength": 1056,
      "target": 34962
    },
    {
      "buffer": 34,
      "byteLength": 704,
      "target": 34962
    },
    {
      "buffer": 35,
      "byteLength": 528,
      "target": 34963
    },
    {
      "buffer": 36,
      "byteLength": 1056,
      "target": 34962
    },
    {
      "buffer": 37,
      "byteLength": 1056,
      "target": 34962
    },
    {
      "buffer": 38,
      "byteLength": 704,
      "target": 34962
    },
    {
      "buffer": 39,
      "byteLength": 528,
      "target": 34963
    },
    {
      "buffer": 40,
      "byteLength": 1056,
      "target": 34962
    },
    {
      "buffer": 41,
      "byteLength": 1056,
      "target": 34962
    },
    {
      "buffer": 42,
      "byteLength": 704,
      "target": 34962
    },
    {
      "buffer": 43,
      "byteLength": 528,
      "target": 34963
    },
    {
      "buffer": 44,
      "byteLength": 1056,
      "target": 34962
    },
    {
      "buffer": 45,
      "byteLength": 1056,
      "target": 34962
    },
    {
      "buffer": 46,
      "byteLength": 704,
      "target": 34962
    },
    {
      "buffer": 47,
      "byteLength": 528,
      "target": 34963
    }
  ],
  "buffers": [
    {
      "byteLength": 1392,
      "uri": "data:application/octet-stream;base64,"
    },
    {
      "byteLength": 1392,
      "uri": "data:application/octet-stream;base64,"
    },
    {
      "byteLength": 928,
      "uri": "data:application/octet-stream;base64,"
    },
    {
      "byteLength": 696,
      "uri": "data:application/octet-stream;base64,"
    },
    {
      "byteLength": 240,
      "uri": "data:application/octet-stream;base64,"
    },
    {
      "byteLength": 240,
      "uri": "data:application/octet-stream;base64,"
    },
    {
      "byteLength": 160,
      "uri": "data:application/octet-stream;base64,"
    },
    {
      "byteLength": 120,
      "uri": "data:application/octet-stream;base64,"
    },
    {
      "byteLength": 240,
      "uri": "data:application/octet-stream;base64,"
    },
    {
      "byteLength": 240,
      "uri": "data:application/octet-stream;base64,"
    },
    {
      "byteLength": 160,
      "uri": "data:application/octet-stream;base64,"
    },
    {
      "byteLength": 120,
      "uri": "data:application/octet-stream;base64,"
    },
    {
      "byteLength": 240,
      "uri": "data:application/octet-stream;base64,"
    },
    {
      "byteLength": 240,
      "uri": "data:application/octet-stream;base64,"
    },
    {
      "byteLength": 160,
      "uri": "data:application/octet-stream;base64,"
    },
    {
      "byteLength": 120,
      "uri": "data:application/octet-stream;base64,"
    },
    {
      "byteLength": 240,
      "uri": "data:application/octet-stream;base64,"
    },
    {
      "byteLength": 240,
      "uri": "data:application/octet-stream;base64,"
    },
    {
      "byteLength": 160,
      "uri": "data:application/octet-stream;base64,"
    },
    {
      "byteLength": 120,
      "uri": "data:application/octet-stream;base64,"
    },
    {
      "byteLength": 240,
      "uri": "data:application/octet-stream;base64,"
    },
    {
      "byteLength": 240,
      "uri": "data:application/octet-stream;base64,"
    },
    {
      "byteLength": 160,
      "uri": "data:application/octet-stream;base64,"
    },
    {
      "byteLength": 120,
      "uri": "data:application/octet-stream;base64,"
    },
    {
      "byteLength": 9120,
      "uri": "data:application/octet-stream;base64,"
    },
    {
      "byteLength": 9120,
      "uri": "data:application/octet-stream;base64,"
    },
    {
      "byteLength": 6080,
      "uri": "data:application/octet-stream;base64,"
    },
    {
      "byteLength": 4320,
      "uri": "data:application/octet-stream;base64,"
    },
    {
      "byteLength": 9120,
      "uri": "data:application/octet-stream;base64,"
    },
    {
      "byteLength": 9120,
      "uri": "data:application/octet-stream;base64,"
    },
    {
      "byteLength": 6080,
      "uri": "data:application/octet-stream;base64,"
    },
    {
      "byteLength": 4320,
      "uri": "data:application/octet-stream;base64,"
    },
    {
      "byteLength": 1056,
      "uri": "data:application/octet-stream;base64,"
    },
    {
      "byteLength": 1056,
      "uri": "data:application/octet-stream;base64,"
    },
    {
      "byteLength": 704,
      "uri": "data:application/octet-stream;base64,"
    },
    {
      "byteLength": 528,
      "uri": "data:application/octet-stream;base64,"
    },
    {
      "byteLength": 1056,
      "uri": "data:application/octet-stream;base64,"
    },
    {
      "byteLength": 1056,
      "uri": "data:application/octet-stream;base64,"
    },
    {
      "byteLength": 704,
      "uri": "data:application/octet-stream;base64,"
    },
    {
      "byteLength": 528,
      "uri": "data:application/octet-stream;base64,"
    },
    {
      "byteLength": 1056,
      "uri": "data:application/octet-stream;base64,"
    },
    {
      "byteLength": 1056,
      "uri": "data:application/octet-stream;base64,"
    },
    {
      "byteLength": 704,
      "uri": "data:application/octet-stream;base64,"
    },
    {
      "byteLength": 528,
      "uri": "data:application/octet-stream;base64,"
    },
    {
      "byteLength": 1056,
      "uri": "data:application/octet-stream;base64,"
    },
    {
      "byteLength": 1056,
      "uri": "data:application/octet-stream;base64,"
    },
    {
      "byteLength": 704,
      "uri": "data:application/octet-stream;base64,"
    },
    {
      "byteLength": 528,
      "uri": "data:application/octet-stream;base64,"
    }
  ],
  "materials": [
    {
      "doubleSided": true,
      "pbrMetallicRoughness": {
        "baseColorFactor": [
          0.47375965118408203,
          0.43051275610923767,
          0.43051275610923767,
          1.0
        ],
        "metallicFactor": 0.0,
        "roughnessFactor": 0.0
      }
    },
    {
      "doubleSided": true,
      "pbrMetallicRoughness": {
        "baseColorFactor": [
          0.38823530077934265,
          0.533333420753479,
          0.6627451181411743,
          1.0
        ],
        "metallicFactor": 0.0,
        "roughnessFactor": 0.0
      }
    },
    {
      "doubleSided": true,
      "pbrMetallicRoughness": {
        "baseColorFactor": [
          0.4588235318660736,
          0.6235294938087463,
          0.8078431487083435,
          1.0
        ],
        "metallicFactor": 0.0,
        "roughnessFactor": 0.0
      }
    },
    {
      "doubleSided": true,
      "pbrMetallicRoughness": {
        "baseColorFactor": [
          0.3647059202194214,
          0.5176470875740051,
          0.6745098233222961,
          1.0
        ],
        "metallicFactor": 0.0,
        "roughnessFactor": 0.0
      }
    },
    {
      "doubleSided": true,
      "pbrMetallicRoughness": {
        "baseColorFactor": [
          0.43921568989753723,
          0.3333333432674408,
          0.3333333432674408,
          1.0
        ],
        "metallicFactor": 0.0,
        "roughnessFactor": 0.0
      }
    },
    {
      "doubleSided": true,
      "pbrMetallicRoughness": {
        "baseColorFactor": [
          0.43921568989753723,
          0.3333333432674408,
          0.3333333432674408,
          1.0
        ],
        "metallicFactor": 0.0,
        "roughnessFactor": 0.0
      }
    },
    {
      "doubleSided": true,
      "pbrMetallicRoughness": {
        "baseColorFactor": [
          0.8041255474090576,
          0.8470588326454163,
          0.30588239431381226,
          1.0
        ],
        "metallicFactor": 0.0,
        "roughnessFactor": 0.0
      }
    },
    {
      "doubleSided": true,
      "pbrMetallicRoughness": {
        "baseColorFactor": [
          0.8041255474090576,
          0.8470588326454163,
          0.30588239431381226,
          1.0
        ],
        "metallicFactor": 0.0,
        "roughnessFactor": 0.0
      }
    },
    {
      "doubleSided": true,
      "pbrMetallicRoughness": {
        "baseColorFactor": [
          0.2078431397676468,
          0.2078431397676468,
          0.2078431397676468,
          1.0
        ],
        "metallicFactor": 0.0,
        "roughnessFactor": 0.0
      }
    },
    {
      "doubleSided": true,
      "pbrMetallicRoughness": {
        "baseColorFactor": [
          0.2078431397676468,
          0.2078431397676468,
          0.2078431397676468,
          1.0
        ],
        "metallicFactor": 0.0,
        "roughnessFactor": 0.0
      }
    },
    {
      "doubleSided": true,
      "pbrMetallicRoughness": {
        "baseColorFactor": [
          0.2078431397676468,
          0.2078431397676468,
          0.2078431397676468,
          1.0
        ],
        "metallicFactor": 0.0,
        "roughnessFactor": 0.0
      }
    },
    {
      "doubleSided": true,
      "pbrMetallicRoughness": {
        "baseColorFactor": [
          0.2078431397676468,
          0.2078431397676468,
          0.2078431397676468,
          1.0
        ],
        "metallicFactor": 0.0,
        "roughnessFactor": 0.0
      }
    }
  ],
  "meshes": [
    {
      "primitives": [
        {
          "attributes": {
            "NORMAL": 1,
            "POSITION": 0,
            "TEXCOORD_0": 2
          },
          "indices": 3,
          "material": 0,
          "mode": 4
        }
      ]
    },
    {
      "primitives": [
        {
          "attributes": {
            "NORMAL": 5,
            "POSITION": 4,
            "TEXCOORD_0": 6
          },
          "indices": 7,
          "material": 1,
          "mode": 4
        }
      ]
    },
    {
      "primitives": [
        {
          "attributes": {
            "NORMAL": 9,
            "POSITION": 8,
            "TEXCOORD_0": 10
          },
          "indices": 11,
          "material": 2,
          "mode": 4
        }
      ]
    },
    {
      "primitives": [
        {
          "attributes": {
            "NORMAL": 13,
            "POSITION": 12,
            "TEXCOORD_0": 14
          },
          "indices": 15,
          "material": 3,
          "mode": 4
        }
      ]
    },
    {
      "primitives": [
        {
          "attributes": {
            "NORMAL": 17,
            "POSITION": 16,
            "TEXCOORD_0": 18
          },
          "indices": 19,
          "material": 4,
          "mode": 4
        }
      ]
    },
    {
      "primitives": [
        {
          "attributes": {
            "NORMAL": 21,
            "POSITION": 20,
            "TEXCOORD_0": 22
          },
          "indices": 23,
          "material": 5,
          "mode": 4
        }
      ]
    },
    {
      "primitives": [
        {
          "attributes": {
            "NORMAL": 25,
            "POSITION": 24,
            "TEXCOORD_0": 26
          },
          "indices": 27,
          "material": 6,
          "mode": 4
        }
      ]
    },
    {
      "primitives": [
        {
          "attributes": {
            "NORMAL": 29,
            "POSITION": 28,
            "TEXCOORD_0": 30
          },
          "indices": 31,
          "material": 7,
          "mode": 4
        }
      ]
    },
    {
      "primitives": [
        {
          "attributes": {
            "NORMAL": 33,
            "POSITION": 32,
            "TEXCOORD_0": 34
          },
          "indices": 35,
          "material": 8,
          "mode": 4
        }
      ]
    },
    {
      "primitives": [
        {
          "attributes": {
            "NORMAL": 37,
            "POSITION": 36,
            "TEXCOORD_0": 38
          },
          "indices": 39,
          "material": 9,
          "mode": 4
        }
      ]
    },
    {
      "primitives": [
        {
          "attributes": {
            "NORMAL": 41,
            "POSITION": 40,
            "TEXCOORD_0": 42
          },
          "indices": 43,
          "material": 10,
          "mode": 4
        }
      ]
    },
    {
      "primitives": [
        {
          "attributes": {
            "NORMAL": 45,
            "POSITION": 44,
            "TEXCOORD_0": 46
          },
          "indices": 47,
          "material": 11,
          "mode": 4
        }
      ]
    }
  ],
  "nodes": [
    {
      "children": [
        12,
        11,
        10,
        9,
        8,
        7,
        6,
        5,
        4,
        3,
        2,
        1
      ],
      "name": "auto",
      "rotation": [
        0.0,
        -0.0,
        -0.0,
        1.0
      ],
      "scale": [
        1.0,
        1.0,
        1.0
      ],
      "translation": [
        -0.0,
        0.0,
        0.0
      ]
    },
    {
      "mesh": 0,
      "name": "Cubo",
      "rotation": [
        0.0,
        -0.0,
        -0.0,
        1.0
      ],
      "scale": [
        1.0,
        1.0,
        1.0
      ],
      "translation": [
        -0.3823738396167755,
        0.07204361259937286,
        0.0
      ]
    },
    {
      "mesh": 1,
      "name": "Cubo_1",
      "rotation": [
        0.0,
        -0.0,
        -0.0,
        1.0
      ],
      "scale": [
        1.0,
        1.0,
        1.0
      ],
      "translation": [
        -1.0761997699737549,
        0.6067432165145874,
        0.0
      ]
    },
    {
      "mesh": 2,
      "name": "Cubo_2",
      "rotation": [
        0.0,
        -0.0,
        -0.0,
        1.0
      ],
      "scale": [
        1.0,
        1.0,
        1.0
      ],
      "translation": [
        -0.3203899562358856,
        0.6316531896591187,
        -0.615260899066925
      ]
    },
    {
      "mesh": 3,
      "name": "Cubo_3",
      "rotation": [
        0.0,
        -0.0,
        -0.0,
        1.0
      ],
      "scale": [
        1.0,
        1.0,
        1.0
      ],
      "translation": [
        -0.22938814759254456,
        0.6316531896591187,
        0.6045664548873901
      ]
    },
    {
      "mesh": 4,
      "name": "Cubo_4",
      "rotation": [
        0.0,
        -0.0,
        -0.0,
        1.0
      ],
      "scale": [
        1.0,
        1.0,
        1.0
      ],
      "translation": [
        -0.31435519456863403,
        0.07204360514879227,
        -0.6198717355728149
      ]
    },
    {
      "mesh": 5,
      "name": "Cubo_5",
      "rotation": [
        0.0,
        -0.0,
        -0.0,
        1.0
      ],
      "scale": [
        1.0,
        1.0,
        1.0
      ],
      "translation": [
        -0.2111697494983673,
        0.07204363495111465,
        0.6266862154006958
      ]
    },
    {
      "mesh": 6,
      "name": "Esfera",
      "rotation": [
        0.0,
        -0.0,
        -0.0,
        1.0
      ],
      "scale": [
        1.0,
        1.0,
        1.0
      ],
      "translation": [
        -1.8992605209350586,
        0.011408546939492226,
        0.29742926359176636
      ]
    },
    {
      "mesh": 7,
      "name": "Esfera",
      "rotation": [
        0.0,
        -0.0,
        -0.0,
        1.0
      ],
      "scale": [
        1.0,
        1.0,
        1.0
      ],
      "translation": [
        -1.8992605209350586,
        0.01140862051397562,
        -0.3109823763370514
      ]
    },
    {
      "mesh": 8,
      "name": "Cubo",
      "rotation": [
        -0.7162365317344666,
        1.1333393956647342e-07,
        1.0018831630986824e-07,
        0.6978576183319092
      ],
      "scale": [
        1.0,
        1.0,
        1.0
      ],
      "translation": [
        -1.465229217956221e-07,
        -0.4315453767776489,
        -0.4703224003314972
      ]
    },
    {
      "mesh": 9,
      "name": "Cubo",
      "rotation": [
        -0.7162365317344666,
        1.1333393956647342e-07,
        1.0018831630986824e-07,
        0.6978576183319092
      ],
      "scale": [
        1.0,
        1.0,
        1.0
      ],
      "translation": [
        -1.048406958580017,
        -0.431545615196228,
        -0.4703221023082733
      ]
    },
    {
      "mesh": 10,
      "name": "Cubo",
      "rotation": [
        -0.7162365317344666,
        1.1333393956647342e-07,
        1.0018831630986824e-07,
        0.6978576183319092
      ],
      "scale": [
        1.0,
        1.0,
        1.0
      ],
      "translation": [
        -1.048406958580017,
        -0.40683749318122864,
        0.4800786077976227
      ]
    },
    {
      "mesh": 11,
      "name": "Cubo",
      "rotation": [
        -0.7162365317344666,
        1.1333393956647342e-07,
        1.0018831630986824e-07,
        0.6978576183319092
      ],
      "scale": [
        1.0,
        1.0,
        1.0
      ],
      "translation": [
        0.004703865386545658,
        -0.40683725476264954,
        0.4800783395767212
      ]
    }
  ],
  "scenes": [
    {
      "nodes": [
        0
      ]
    }
  ]
}
