{
  "accessors": [
    {
      "bufferView": 0,
      "componentType": 5126,
      "count": 392,
      "max": [
        0.6382770538330078,
        0.7843303084373474,
        0.6542616486549377
      ],
      "min": [
        -0.6691739559173584,
        -0.6494343876838684,
        -0.6222960352897644
      ],
      "type": "VEC3"
    },
    {
      "bufferView": 1,
      "componentType": 5126,
      "count": 392,
      "type": "VEC3"
    },
    {
      "bufferView": 2,
      "componentType": 5126,
      "count": 392,
      "type": "VEC2"
    },
    {
      "bufferView": 3,
      "componentType": 5125,
      "count": 588,
      "type": "SCALAR"
    },
    {
      "bufferView": 4,
      "componentType": 5126,
      "count": 392,
      "max": [
        0.6382770538330078,
        0.7843301296234131,
        0.6542616486549377
      ],
      "min": [
        -0.6691739559173584,
        -0.6494343876838684,
        -0.6222960352897644
      ],
      "type": "VEC3"
    },
    {
      "bufferView": 5,
      "componentType": 5126,
      "count": 392,
      "type": "VEC3"
    },
    {
      "bufferView": 6,
      "componentType": 5126,
      "count": 392,
      "type": "VEC2"
    },
    {
      "bufferView": 7,
      "componentType": 5125,
      "count": 588,
      "type": "SCALAR"
    },
    {
      "bufferView": 8,
      "componentType": 5126,
      "count": 324,
      "max": [
        0.6382770538330078,
        3.622666835784912,
        0.7115173935890198
      ],
      "min": [
        -0.6691739559173584,
        2.9566895961761475,
        -0.5650421977043152
      ],
      "type": "VEC3"
    },
    {
      "bufferView": 9,
      "componentType": 5126,
      "count": 324,
      "type": "VEC3"
    },
    {
      "bufferView": 10,
      "componentType": 5126,
      "count": 324,
      "type": "VEC2"
    },
    {
      "bufferView": 11,
      "componentType": 5125,
      "count": 486,
      "type": "SCALAR"
    }
  ],
  "asset": {
    "generator": "Prisma3D Pro",
    "version": "2.0"
  },
  "bufferViews": [
    {
      "buffer": 0,
      "byteLength": 4704,
      "target": 34962
    },
    {
      "buffer": 1,
      "byteLength": 4704,
      "target": 34962
    },
    {
      "buffer": 2,
      "byteLength": 3136,
      "target": 34962
    },
    {
      "buffer": 3,
      "byteLength": 2352,
      "target": 34963
    },
    {
      "buffer": 4,
      "byteLength": 4704,
      "target": 34962
    },
    {
      "buffer": 5,
      "byteLength": 4704,
      "target": 34962
    },
    {
      "buffer": 6,
      "byteLength": 3136,
      "target": 34962
    },
    {
      "buffer": 7,
      "byteLength": 2352,
      "target": 34963
    },
    {
      "buffer": 8,
      "byteLength": 3888,
      "target": 34962
    },
    {
      "buffer": 9,
      "byteLength": 3888,
      "target": 34962
    },
    {
      "buffer": 10,
      "byteLength": 2592,
      "target": 34962
    },
    {
      "buffer": 11,
      "byteLength": 1944,
      "target": 34963
    }
  ],
  "buffers": [
    {
      "byteLength": 4704,
      "uri": "data:application/octet-stream;base64,"
    },
    {
      "byteLength": 4704,
      "uri": "data:application/octet-stream;base64,"
    },
    {
      "byteLength": 3136,
      "uri": "data:application/octet-stream;base64,"
    },
    {
      "byteLength": 2352,
      "uri": "data:application/octet-stream;base64,"
    },
    {
      "byteLength": 4704,
      "uri": "data:application/octet-stream;base64,"
    },
    {
      "byteLength": 4704,
      "uri": "data:application/octet-stream;base64,"
    },
    {
      "byteLength": 3136,
      "uri": "data:application/octet-stream;base64,"
    },
    {
      "byteLength": 2352,
      "uri": "data:application/octet-stream;base64,"
    },
    {
      "byteLength": 3888,
      "uri": "data:application/octet-stream;base64,"
    },
    {
      "byteLength": 3888,
      "uri": "data:application/octet-stream;base64,"
    },
    {
      "byteLength": 2592,
      "uri": "data:application/octet-stream;base64,"
    },
    {
      "byteLength": 1944,
      "uri": "data:application/octet-stream;base64,"
    }
  ],
  "materials": [
    {
      "doubleSided": true,
      "pbrMetallicRoughness": {
        "baseColorFactor": [
          0.6470588445663452,
          0.42352941632270813,
          0.4117647111415863,
          1.0
        ],
        "metallicFactor": 0.0,
        "roughnessFactor": 0.0
      }
    },
    {
      "doubleSided": true,
      "pbrMetallicRoughness": {
        "baseColorFactor": [
          0.6117647290229797,
          0.43921568989753723,
          0.43921568989753723,
          1.0
        ],
        "metallicFactor": 0.0,
        "roughnessFactor": 0.0
      }
    },
    {
      "doubleSided": true,
      "pbrMetallicRoughness": {
        "metallicFactor": 0.0,
        "roughnessFactor": 0.0
      }
    }
  ],
  "meshes": [
    {
      "primitives": [
        {
          "attributes": {
            "NORMAL": 1,
            "POSITION": 0,
            "TEXCOORD_0": 2
          },
          "indices": 3,
          "material": 0,
          "mode": 4
        }
      ]
    },
    {
      "primitives": [
        {
          "attributes": {
            "NORMAL": 5,
            "POSITION": 4,
            "TEXCOORD_0": 6
          },
          "indices": 7,
          "material": 1,
          "mode": 4
        }
      ]
    },
    {
      "primitives": [
        {
          "attributes": {
            "NORMAL": 9,
            "POSITION": 8,
            "TEXCOORD_0": 10
          },
          "indices": 11,
          "material": 2,
          "mode": 4
        }
      ]
    }
  ],
  "nodes": [
    {
      "children": [
        3,
        2,
        1
      ],
      "name": "barril",
      "rotation": [
        0.0,
        -0.0,
        -0.0,
        1.0
      ],
      "scale": [
        1.0,
        1.0,
        1.0
      ],
      "translation": [
        -0.0,
        0.20508143305778503,
        0.0
      ]
    },
    {
      "mesh": 0,
      "name": "Cubo",
      "rotation": [
        0.0,
        -0.0,
        -0.0,
        1.0
      ],
      "scale": [
        1.0,
        1.0,
        1.0
      ],
      "translation": [
        -0.0,
        0.4406309425830841,
        0.0
      ]
    },
    {
      "mesh": 1,
      "name": "Cubo",
      "rotation": [
        -0.9999504685401917,
        -4.058398772599503e-08,
        3.134657617920311e-07,
        0.0099556315690279
      ],
      "scale": [
        1.0,
        1.0,
        1.0
      ],
      "translation": [
        -0.0,
        0.4406309425830841,
        0.0
      ]
    },
    {
      "mesh": 2,
      "name": "Cubo",
      "rotation": [
        -0.9999504685401917,
        -4.058398772599503e-08,
        3.134657617920311e-07,
        0.0099556315690279
      ],
      "scale": [
        1.0,
        1.0,
        1.0
      ],
      "translation": [
        1.7219335290974414e-07,
        3.6392414569854736,
        0.1351536512374878
      ]
    }
  ],
  "scenes": [
    {
      "nodes": [
        0
      ]
    }
  ]
}
