{
  "accessors": [
    {
      "bufferView": 0,
      "componentType": 5126,
      "count": 68,
      "max": [
        0.09872209280729294,
        0.10380265861749649,
        0.05929599702358246
      ],
      "min": [
        -0.0976337343454361,
        -0.07147566229104996,
        -0.06484769284725189
      ],
      "type": "VEC3"
    },
    {
      "bufferView": 1,
      "componentType": 5126,
      "count": 68,
      "type": "VEC3"
    },
    {
      "bufferView": 2,
      "componentType": 5126,
      "count": 68,
      "type": "VEC2"
    },
    {
      "bufferView": 3,
      "componentType": 5125,
      "count": 102,
      "type": "SCALAR"
    }
  ],
  "asset": {
    "generator": "Prisma3D Pro",
    "version": "2.0"
  },
  "bufferViews": [
    {
      "buffer": 0,
      "byteLength": 816,
      "target": 34962
    },
    {
      "buffer": 1,
      "byteLength": 816,
      "target": 34962
    },
    {
      "buffer": 2,
      "byteLength": 544,
      "target": 34962
    },
    {
      "buffer": 3,
      "byteLength": 408,
      "target": 34963
    }
  ],
  "buffers": [
    {
      "byteLength": 816,
      "uri": "data:application/octet-stream;base64,"
    },
    {
      "byteLength": 816,
      "uri": "data:application/octet-stream;base64,"
    },
    {
      "byteLength": 544,
      "uri": "data:application/octet-stream;base64,"
    },
    {
      "byteLength": 408,
      "uri": "data:application/octet-stream;base64,"
    }
  ],
  "materials": [
    {
      "doubleSided": true,
      "pbrMetallicRoughness": {
        "baseColorFactor": [
          0.7529411911964417,
          0.2235294133424759,
          0.1725490242242813,
          1.0
        ],
        "metallicFactor": 0.0,
        "roughnessFactor": 0.0
      }
    }
  ],
  "meshes": [
    {
      "primitives": [
        {
          "attributes": {
            "NORMAL": 1,
            "POSITION": 0,
            "TEXCOORD_0": 2
          },
          "indices": 3,
          "material": 0,
          "mode": 4
        }
      ]
    }
  ],
  "nodes": [
    {
      "children": [
        1
      ],
      "name": "cajita",
      "rotation": [
        0.0,
        -0.0,
        -0.0,
        1.0
      ],
      "scale": [
        1.0,
        1.0,
        1.0
      ],
      "translation": [
        -0.0,
        -1.9554047270275987e-09,
        0.016403168439865112
      ]
    },
    {
      "mesh": 0,
      "name": "cajits",
      "rotation": [
        1.0,
        4.371138473402425e-08,
        4.371138473402425e-08,
        4.371139183945161e-08
      ],
      "scale": [
        1.0,
        1.0,
        1.0
      ],
      "translation": [
        1.3939506215976394e-09,
        -0.0014588749036192894,
        -0.01594482734799385
      ]
    }
  ],
  "scenes": [
    {
      "nodes": [
        0
      ]
    }
  ]
}
