{
  "accessors": [
    {
      "bufferView": 0,
      "componentType": 5126,
      "count": 772,
      "max": [
        0.20277975499629974,
        0.2484060674905777,
        0.06610895693302155
      ],
      "min": [
        -0.5722836256027222,
        -0.28661689162254333,
        -0.06610752642154694
      ],
      "type": "VEC3"
    },
    {
      "bufferView": 1,
      "componentType": 5126,
      "count": 772,
      "type": "VEC3"
    },
    {
      "bufferView": 2,
      "componentType": 5126,
      "count": 772,
      "type": "VEC2"
    },
    {
      "bufferView": 3,
      "componentType": 5125,
      "count": 1158,
      "type": "SCALAR"
    }
  ],
  "asset": {
    "generator": "Prisma3D Pro",
    "version": "2.0"
  },
  "bufferViews": [
    {
      "buffer": 0,
      "byteLength": 9264,
      "target": 34962
    },
    {
      "buffer": 1,
      "byteLength": 9264,
      "target": 34962
    },
    {
      "buffer": 2,
      "byteLength": 6176,
      "target": 34962
    },
    {
      "buffer": 3,
      "byteLength": 4632,
      "target": 34963
    }
  ],
  "buffers": [
    {
      "byteLength": 9264,
      "uri": "data:application/octet-stream;base64,"
    },
    {
      "byteLength": 9264,
      "uri": "data:application/octet-stream;base64,"
    },
    {
      "byteLength": 6176,
      "uri": "data:application/octet-stream;base64,"
    },
    {
      "byteLength": 4632,
      "uri": "data:application/octet-stream;base64,"
    }
  ],
  "materials": [
    {
      "doubleSided": true,
      "pbrMetallicRoughness": {
        "baseColorFactor": [
          0.2078431397676468,
          0.2078431397676468,
          0.2078431397676468,
          1.0
        ],
        "metallicFactor": 0.375,
        "roughnessFactor": 0.0
      }
    }
  ],
  "meshes": [
    {
      "primitives": [
        {
          "attributes": {
            "NORMAL": 1,
            "POSITION": 0,
            "TEXCOORD_0": 2
          },
          "indices": 3,
          "material": 0,
          "mode": 4
        }
      ]
    }
  ],
  "nodes": [
    {
      "mesh": 0,
      "name": "Cubo",
      "rotation": [
        -0.004295894410461187,
        0.24854528903961182,
        -0.016739211976528168,
        0.9684661626815796
      ],
      "scale": [
        1.0,
        1.0,
        1.0
      ],
      "translation": [
        -0.17036330699920654,
        1.451380729675293,
        0.47290894389152527
      ]
    }
  ],
  "scenes": [
    {
      "nodes": [
        0
      ]
    }
  ]
}
