{
  "accessors": [
    {
      "bufferView": 0,
      "componentType": 5126,
      "count": 772,
      "max": [
        0.2411728948354721,
        0.25276699662208557,
        0.08649519085884094
      ],
      "min": [
        -0.6806366443634033,
        -0.29164838790893555,
        -0.08649331331253052
      ],
      "type": "VEC3"
    },
    {
      "bufferView": 1,
      "componentType": 5126,
      "count": 772,
      "type": "VEC3"
    },
    {
      "bufferView": 2,
      "componentType": 5126,
      "count": 772,
      "type": "VEC2"
    },
    {
      "bufferView": 3,
      "componentType": 5125,
      "count": 1158,
      "type": "SCALAR"
    }
  ],
  "asset": {
    "generator": "Prisma3D Pro",
    "version": "2.0"
  },
  "bufferViews": [
    {
      "buffer": 0,
      "byteLength": 9264,
      "target": 34962
    },
    {
      "buffer": 1,
      "byteLength": 9264,
      "target": 34962
    },
    {
      "buffer": 2,
      "byteLength": 6176,
      "target": 34962
    },
    {
      "buffer": 3,
      "byteLength": 4632,
      "target": 34963
    }
  ],
  "buffers": [
    {
      "byteLength": 9264,
      "uri": "data:application/octet-stream;base64,"
    },
    {
      "byteLength": 9264,
      "uri": "data:application/octet-stream;base64,"
    },
    {
      "byteLength": 6176,
      "uri": "data:application/octet-stream;base64,"
    },
    {
      "byteLength": 4632,
      "uri": "data:application/octet-stream;base64,"
    }
  ],
  "materials": [
    {
      "doubleSided": true,
      "pbrMetallicRoughness": {
        "baseColorFactor": [
          0.2078431397676468,
          0.2078431397676468,
          0.2078431397676468,
          1.0
        ],
        "metallicFactor": 0.375,
        "roughnessFactor": 0.0
      }
    }
  ],
  "meshes": [
    {
      "primitives": [
        {
          "attributes": {
            "NORMAL": 1,
            "POSITION": 0,
            "TEXCOORD_0": 2
          },
          "indices": 3,
          "material": 0,
          "mode": 4
        }
      ]
    }
  ],
  "nodes": [
    {
      "mesh": 0,
      "name": "Cubo",
      "rotation": [
        -0.017075298354029655,
        -0.6913710236549377,
        -0.005693330429494381,
        0.7222757339477539
      ],
      "scale": [
        1.0,
        1.0,
        1.0
      ],
      "translation": [
        0.5298427939414978,
        0.7503769397735596,
        -0.6901953220367432
      ]
    }
  ],
  "scenes": [
    {
      "nodes": [
        0
      ]
    }
  ]
}
