{
  "accessors": [
    {
      "bufferView": 0,
      "componentType": 5126,
      "count": 88,
      "max": [
        0.12167221307754517,
        0.022284766659140587,
        0.10358977317810059
      ],
      "min": [
        -0.12460862100124359,
        -0.02228476293385029,
        -0.11509844660758972
      ],
      "type": "VEC3"
    },
    {
      "bufferView": 1,
      "componentType": 5126,
      "count": 88,
      "type": "VEC3"
    },
    {
      "bufferView": 2,
      "componentType": 5126,
      "count": 88,
      "type": "VEC2"
    },
    {
      "bufferView": 3,
      "componentType": 5125,
      "count": 132,
      "type": "SCALAR"
    },
    {
      "bufferView": 4,
      "componentType": 5126,
      "count": 88,
      "max": [
        0.12167215347290039,
        0.022284768521785736,
        0.1035897359251976
      ],
      "min": [
        -0.124608613550663,
        -0.022284764796495438,
        -0.11509841680526733
      ],
      "type": "VEC3"
    },
    {
      "bufferView": 5,
      "componentType": 5126,
      "count": 88,
      "type": "VEC3"
    },
    {
      "bufferView": 6,
      "componentType": 5126,
      "count": 88,
      "type": "VEC2"
    },
    {
      "bufferView": 7,
      "componentType": 5125,
      "count": 132,
      "type": "SCALAR"
    },
    {
      "bufferView": 8,
      "componentType": 5126,
      "count": 88,
      "max": [
        0.12167216837406158,
        0.02228473126888275,
        0.10358982533216476
      ],
      "min": [
        -0.12460868805646896,
        -0.022284790873527527,
        -0.11509837955236435
      ],
      "type": "VEC3"
    },
    {
      "bufferView": 9,
      "componentType": 5126,
      "count": 88,
      "type": "VEC3"
    },
    {
      "bufferView": 10,
      "componentType": 5126,
      "count": 88,
      "type": "VEC2"
    },
    {
      "bufferView": 11,
      "componentType": 5125,
      "count": 132,
      "type": "SCALAR"
    },
    {
      "bufferView": 12,
      "componentType": 5126,
      "count": 328,
      "max": [
        0.18111343681812286,
        0.27044907212257385,
        0.3149939775466919
      ],
      "min": [
        -0.8411707878112793,
        -0.18111345171928406,
        -0.30943065881729126
      ],
      "type": "VEC3"
    },
    {
      "bufferView": 13,
      "componentType": 5126,
      "count": 328,
      "type": "VEC3"
    },
    {
      "bufferView": 14,
      "componentType": 5126,
      "count": 328,
      "type": "VEC2"
    },
    {
      "bufferView": 15,
      "componentType": 5125,
      "count": 492,
      "type": "SCALAR"
    },
    {
      "bufferView": 16,
      "componentType": 5126,
      "count": 88,
      "max": [
        0.0753164067864418,
        0.38847458362579346,
        0.07460983842611313
      ],
      "min": [
        -0.07713434100151062,
        -0.38847458362579346,
        -0.08289892971515656
      ],
      "type": "VEC3"
    },
    {
      "bufferView": 17,
      "componentType": 5126,
      "count": 88,
      "type": "VEC3"
    },
    {
      "bufferView": 18,
      "componentType": 5126,
      "count": 88,
      "type": "VEC2"
    },
    {
      "bufferView": 19,
      "componentType": 5125,
      "count": 132,
      "type": "SCALAR"
    },
    {
      "bufferView": 20,
      "componentType": 5126,
      "count": 88,
      "max": [
        0.07531646639108658,
        0.388474702835083,
        0.07460983842611313
      ],
      "min": [
        -0.07713424414396286,
        -0.388474702835083,
        -0.08289892971515656
      ],
      "type": "VEC3"
    },
    {
      "bufferView": 21,
      "componentType": 5126,
      "count": 88,
      "type": "VEC3"
    },
    {
      "bufferView": 22,
      "componentType": 5126,
      "count": 88,
      "type": "VEC2"
    },
    {
      "bufferView": 23,
      "componentType": 5125,
      "count": 132,
      "type": "SCALAR"
    },
    {
      "bufferView": 24,
      "componentType": 5126,
      "count": 88,
      "max": [
        0.07531651854515076,
        0.388474702835083,
        0.07460979372262955
      ],
      "min": [
        -0.07713423669338226,
        -0.3884745240211487,
        -0.08289898186922073
      ],
      "type": "VEC3"
    },
    {
      "bufferView": 25,
      "componentType": 5126,
      "count": 88,
      "type": "VEC3"
    },
    {
      "bufferView": 26,
      "componentType": 5126,
      "count": 88,
      "type": "VEC2"
    },
    {
      "bufferView": 27,
      "componentType": 5125,
      "count": 132,
      "type": "SCALAR"
    },
    {
      "bufferView": 28,
      "componentType": 5126,
      "count": 88,
      "max": [
        0.07531651854515076,
        0.38847479224205017,
        0.07460983842611313
      ],
      "min": [
        -0.07713423669338226,
        -0.38847458362579346,
        -0.08289892971515656
      ],
      "type": "VEC3"
    },
    {
      "bufferView": 29,
      "componentType": 5126,
      "count": 88,
      "type": "VEC3"
    },
    {
      "bufferView": 30,
      "componentType": 5126,
      "count": 88,
      "type": "VEC2"
    },
    {
      "bufferView": 31,
      "componentType": 5125,
      "count": 132,
      "type": "SCALAR"
    },
    {
      "bufferView": 32,
      "componentType": 5126,
      "count": 88,
      "max": [
        0.12167216837406158,
        0.0222847368568182,
        0.10358971357345581
      ],
      "min": [
        -0.12460871785879135,
        -0.022284796461462975,
        -0.1150985062122345
      ],
      "type": "VEC3"
    },
    {
      "bufferView": 33,
      "componentType": 5126,
      "count": 88,
      "type": "VEC3"
    },
    {
      "bufferView": 34,
      "componentType": 5126,
      "count": 88,
      "type": "VEC2"
    },
    {
      "bufferView": 35,
      "componentType": 5125,
      "count": 132,
      "type": "SCALAR"
    }
  ],
  "asset": {
    "generator": "Prisma3D Pro",
    "version": "2.0"
  },
  "bufferViews": [
    {
      "buffer": 0,
      "byteLength": 1056,
      "target": 34962
    },
    {
      "buffer": 1,
      "byteLength": 1056,
      "target": 34962
    },
    {
      "buffer": 2,
      "byteLength": 704,
      "target": 34962
    },
    {
      "buffer": 3,
      "byteLength": 528,
      "target": 34963
    },
    {
      "buffer": 4,
      "byteLength": 1056,
      "target": 34962
    },
    {
      "buffer": 5,
      "byteLength": 1056,
      "target": 34962
    },
    {
      "buffer": 6,
      "byteLength": 704,
      "target": 34962
    },
    {
      "buffer": 7,
      "byteLength": 528,
      "target": 34963
    },
    {
      "buffer": 8,
      "byteLength": 1056,
      "target": 34962
    },
    {
      "buffer": 9,
      "byteLength": 1056,
      "target": 34962
    },
    {
      "buffer": 10,
      "byteLength": 704,
      "target": 34962
    },
    {
      "buffer": 11,
      "byteLength": 528,
      "target": 34963
    },
    {
      "buffer": 12,
      "byteLength": 3936,
      "target": 34962
    },
    {
      "buffer": 13,
      "byteLength": 3936,
      "target": 34962
    },
    {
      "buffer": 14,
      "byteLength": 2624,
      "target": 34962
    },
    {
      "buffer": 15,
      "byteLength": 1968,
      "target": 34963
    },
    {
      "buffer": 16,
      "byteLength": 1056,
      "target": 34962
    },
    {
      "buffer": 17,
      "byteLength": 1056,
      "target": 34962
    },
    {
      "buffer": 18,
      "byteLength": 704,
      "target": 34962
    },
    {
      "buffer": 19,
      "byteLength": 528,
      "target": 34963
    },
    {
      "buffer": 20,
      "byteLength": 1056,
      "target": 34962
    },
    {
      "buffer": 21,
      "byteLength": 1056,
      "target": 34962
    },
    {
      "buffer": 22,
      "byteLength": 704,
      "target": 34962
    },
    {
      "buffer": 23,
      "byteLength": 528,
      "target": 34963
    },
    {
      "buffer": 24,
      "byteLength": 1056,
      "target": 34962
    },
    {
      "buffer": 25,
      "byteLength": 1056,
      "target": 34962
    },
    {
      "buffer": 26,
      "byteLength": 704,
      "target": 34962
    },
    {
      "buffer": 27,
      "byteLength": 528,
      "target": 34963
    },
    {
      "buffer": 28,
      "byteLength": 1056,
      "target": 34962
    },
    {
      "buffer": 29,
      "byteLength": 1056,
      "target": 34962
    },
    {
      "buffer": 30,
      "byteLength": 704,
      "target": 34962
    },
    {
      "buffer": 31,
      "byteLength": 528,
      "target": 34963
    },
    {
      "buffer": 32,
      "byteLength": 1056,
      "target": 34962
    },
    {
      "buffer": 33,
      "byteLength": 1056,
      "target": 34962
    },
    {
      "buffer": 34,
      "byteLength": 704,
      "target": 34962
    },
    {
      "buffer": 35,
      "byteLength": 528,
      "target": 34963
    }
  ],
  "buffers": [
    {
      "byteLength": 1056,
      "uri": "data:application/octet-stream;base64,"
    },
    {
      "byteLength": 1056,
      "uri": "data:application/octet-stream;base64,"
    },
    {
      "byteLength": 704,
      "uri": "data:application/octet-stream;base64,"
    },
    {
      "byteLength": 528,
      "uri": "data:application/octet-stream;base64,"
    },
    {
      "byteLength": 1056,
      "uri": "data:application/octet-stream;base64,"
    },
    {
      "byteLength": 1056,
      "uri": "data:application/octet-stream;base64,"
    },
    {
      "byteLength": 704,
      "uri": "data:application/octet-stream;base64,"
    },
    {
      "byteLength": 528,
      "uri": "data:application/octet-stream;base64,"
    },
    {
      "byteLength": 1056,
      "uri": "data:application/octet-stream;base64,"
    },
    {
      "byteLength": 1056,
      "uri": "data:application/octet-stream;base64,"
    },
    {
      "byteLength": 704,
      "uri": "data:application/octet-stream;base64,"
    },
    {
      "byteLength": 528,
      "uri": "data:application/octet-stream;base64,"
    },
    {
      "byteLength": 3936,
      "uri": "data:application/octet-stream;base64,"
    },
    {
      "byteLength": 3936,
      "uri": "data:application/octet-stream;base64,"
    },
    {
      "byteLength": 2624,
      "uri": "data:application/octet-stream;base64,"
    },
    {
      "byteLength": 1968,
      "uri": "data:application/octet-stream;base64,"
    },
    {
      "byteLength": 1056,
      "uri": "data:application/octet-stream;base64,"
    },
    {
      "byteLength": 1056,
      "uri": "data:application/octet-stream;base64,"
    },
    {
      "byteLength": 704,
      "uri": "data:application/octet-stream;base64,"
    },
    {
      "byteLength": 528,
      "uri": "data:application/octet-stream;base64,"
    },
    {
      "byteLength": 1056,
      "uri": "data:application/octet-stream;base64,"
    },
    {
      "byteLength": 1056,
      "uri": "data:application/octet-stream;base64,"
    },
    {
      "byteLength": 704,
      "uri": "data:application/octet-stream;base64,"
    },
    {
      "byteLength": 528,
      "uri": "data:application/octet-stream;base64,"
    },
    {
      "byteLength": 1056,
      "uri": "data:application/octet-stream;base64,"
    },
    {
      "byteLength": 1056,
      "uri": "data:application/octet-stream;base64,"
    },
    {
      "byteLength": 704,
      "uri": "data:application/octet-stream;base64,"
    },
    {
      "byteLength": 528,
      "uri": "data:application/octet-stream;base64,"
    },
    {
      "byteLength": 1056,
      "uri": "data:application/octet-stream;base64,"
    },
    {
      "byteLength": 1056,
      "uri": "data:application/octet-stream;base64,"
    },
    {
      "byteLength": 704,
      "uri": "data:application/octet-stream;base64,"
    },
    {
      "byteLength": 528,
      "uri": "data:application/octet-stream;base64,"
    },
    {
      "byteLength": 1056,
      "uri": "data:application/octet-stream;base64,"
    },
    {
      "byteLength": 1056,
      "uri": "data:application/octet-stream;base64,"
    },
    {
      "byteLength": 704,
      "uri": "data:application/octet-stream;base64,"
    },
    {
      "byteLength": 528,
      "uri": "data:application/octet-stream;base64,"
    }
  ],
  "materials": [
    {
      "doubleSided": true,
      "pbrMetallicRoughness": {
        "baseColorFactor": [
          0.2078431397676468,
          0.2078431397676468,
          0.2078431397676468,
          1.0
        ],
        "metallicFactor": 0.0,
        "roughnessFactor": 0.0
      }
    },
    {
      "doubleSided": true,
      "pbrMetallicRoughness": {
        "baseColorFactor": [
          0.2078431397676468,
          0.2078431397676468,
          0.2078431397676468,
          1.0
        ],
        "metallicFactor": 0.0,
        "roughnessFactor": 0.0
      }
    },
    {
      "doubleSided": true,
      "pbrMetallicRoughness": {
        "baseColorFactor": [
          0.2078431397676468,
          0.2078431397676468,
          0.2078431397676468,
          1.0
        ],
        "metallicFactor": 0.0,
        "roughnessFactor": 0.0
      }
    },
    {
      "doubleSided": true,
      "pbrMetallicRoughness": {
        "baseColorFactor": [
          0.3529411852359772,
          0.3529411852359772,
          0.3529411852359772,
          1.0
        ],
        "metallicFactor": 0.0,
        "roughnessFactor": 0.0
      }
    },
    {
      "doubleSided": true,
      "pbrMetallicRoughness": {
        "baseColorFactor": [
          0.4055768847465515,
          0.4055768847465515,
          0.4055768847465515,
          1.0
        ],
        "metallicFactor": 0.0,
        "roughnessFactor": 0.0
      }
    },
    {
      "doubleSided": true,
      "pbrMetallicRoughness": {
        "baseColorFactor": [
          0.6322843432426453,
          0.6322843432426453,
          0.6322843432426453,
          1.0
        ],
        "metallicFactor": 0.0,
        "roughnessFactor": 0.0
      }
    },
    {
      "doubleSided": true,
      "pbrMetallicRoughness": {
        "baseColorFactor": [
          0.4941176474094391,
          0.4941176474094391,
          0.4941176474094391,
          1.0
        ],
        "metallicFactor": 0.0,
        "roughnessFactor": 0.0
      }
    },
    {
      "doubleSided": true,
      "pbrMetallicRoughness": {
        "baseColorFactor": [
          0.4117647111415863,
          0.4117647111415863,
          0.4117647111415863,
          1.0
        ],
        "metallicFactor": 0.0,
        "roughnessFactor": 0.0
      }
    },
    {
      "doubleSided": true,
      "pbrMetallicRoughness": {
        "baseColorFactor": [
          0.2078431397676468,
          0.2078431397676468,
          0.2078431397676468,
          1.0
        ],
        "metallicFactor": 0.0,
        "roughnessFactor": 0.0
      }
    }
  ],
  "meshes": [
    {
      "primitives": [
        {
          "attributes": {
            "NORMAL": 1,
            "POSITION": 0,
            "TEXCOORD_0": 2
          },
          "indices": 3,
          "material": 0,
          "mode": 4
        }
      ]
    },
    {
      "primitives": [
        {
          "attributes": {
            "NORMAL": 5,
            "POSITION": 4,
            "TEXCOORD_0": 6
          },
          "indices": 7,
          "material": 1,
          "mode": 4
        }
      ]
    },
    {
      "primitives": [
        {
          "attributes": {
            "NORMAL": 9,
            "POSITION": 8,
            "TEXCOORD_0": 10
          },
          "indices": 11,
          "material": 2,
          "mode": 4
        }
      ]
    },
    {
      "primitives": [
        {
          "attributes": {
            "NORMAL": 13,
            "POSITION": 12,
            "TEXCOORD_0": 14
          },
          "indices": 15,
          "material": 3,
          "mode": 4
        }
      ]
    },
    {
      "primitives": [
        {
          "attributes": {
            "NORMAL": 17,
            "POSITION": 16,
            "TEXCOORD_0": 18
          },
          "indices": 19,
          "material": 4,
          "mode": 4
        }
      ]
    },
    {
      "primitives": [
        {
          "attributes": {
            "NORMAL": 21,
            "POSITION": 20,
            "TEXCOORD_0": 22
          },
          "indices": 23,
          "material": 5,
          "mode": 4
        }
      ]
    },
    {
      "primitives": [
        {
          "attributes": {
            "NORMAL": 25,
            "POSITION": 24,
            "TEXCOORD_0": 26
          },
          "indices": 27,
          "material": 6,
          "mode": 4
        }
      ]
    },
    {
      "primitives": [
        {
          "attributes": {
            "NORMAL": 29,
            "POSITION": 28,
            "TEXCOORD_0": 30
          },
          "indices": 31,
          "material": 7,
          "mode": 4
        }
      ]
    },
    {
      "primitives": [
        {
          "attributes": {
            "NORMAL": 33,
            "POSITION": 32,
            "TEXCOORD_0": 34
          },
          "indices": 35,
          "material": 8,
          "mode": 4
        }
      ]
    }
  ],
  "nodes": [
    {
      "children": [
        5,
        4,
        3,
        2,
        1
      ],
      "name": "Grupo",
      "rotation": [
        0.0,
        -0.0,
        -0.0,
        1.0
      ],
      "scale": [
        1.0,
        1.0,
        1.0
      ],
      "translation": [
        -0.0,
        0.0,
        0.0
      ]
    },
    {
      "mesh": 0,
      "name": "Cubo",
      "rotation": [
        -0.029062118381261826,
        0.05142761766910553,
        -0.2627209722995758,
        -0.9630619287490845
      ],
      "scale": [
        1.0,
        1.0,
        1.0
      ],
      "translation": [
        0.22843681275844574,
        -0.01392928697168827,
        -0.010221265256404877
      ]
    },
    {
      "mesh": 1,
      "name": "Cubo",
      "rotation": [
        0.05800731107592583,
        -0.03269781544804573,
        -0.2749163806438446,
        0.9591595530509949
      ],
      "scale": [
        1.0,
        1.0,
        1.0
      ],
      "translation": [
        -0.40898311138153076,
        -0.009014025330543518,
        -0.007159180007874966
      ]
    },
    {
      "mesh": 2,
      "name": "Cubo",
      "rotation": [
        -0.24150356650352478,
        0.0008860126254148781,
        -0.0035591518972069025,
        0.9703930020332336
      ],
      "scale": [
        1.0,
        1.0,
        1.0
      ],
      "translation": [
        -0.03510947898030281,
        0.018503783270716667,
        0.36541947722435
      ]
    },
    {
      "mesh": 3,
      "name": "Cubo",
      "rotation": [
        0.0,
        -0.0,
        -0.0,
        1.0
      ],
      "scale": [
        1.0,
        1.0,
        1.0
      ],
      "translation": [
        -0.0,
        0.8339141011238098,
        0.0
      ]
    },
    {
      "children": [
        10,
        9,
        8,
        7,
        6
      ],
      "name": "Grupo",
      "rotation": [
        0.0,
        -0.0,
        -0.0,
        1.0
      ],
      "scale": [
        1.0,
        1.0,
        1.0
      ],
      "translation": [
        -0.0,
        0.0,
        0.0
      ]
    },
    {
      "mesh": 4,
      "name": "Cubo",
      "rotation": [
        -1.4901161193847656e-08,
        -2.220446049250313e-16,
        -0.2258978933095932,
        0.9741510152816772
      ],
      "scale": [
        1.0,
        1.0,
        1.0
      ],
      "translation": [
        -0.21896673738956451,
        0.3530336022377014,
        0.0
      ]
    },
    {
      "mesh": 5,
      "name": "Cubo",
      "rotation": [
        1.8504696441823398e-08,
        2.7401991786746294e-10,
        -0.17802996933460236,
        -0.9840250611305237
      ],
      "scale": [
        1.0,
        1.0,
        1.0
      ],
      "translation": [
        0.08490711450576782,
        0.36046475172042847,
        1.8961332504119355e-09
      ]
    },
    {
      "mesh": 6,
      "name": "Cubo",
      "rotation": [
        -0.25255832076072693,
        -0.003155745333060622,
        0.012089371681213379,
        0.9675010442733765
      ],
      "scale": [
        1.0,
        1.0,
        1.0
      ],
      "translation": [
        -0.037146590650081635,
        0.3601754903793335,
        0.17939244210720062
      ]
    },
    {
      "mesh": 7,
      "name": "Cubo",
      "rotation": [
        0.2295687049627304,
        -0.0008420411613769829,
        -0.0035698115825653076,
        0.9732856154441833
      ],
      "scale": [
        1.0,
        1.0,
        1.0
      ],
      "translation": [
        -0.0682310163974762,
        0.36303070187568665,
        -0.16063593327999115
      ]
    },
    {
      "mesh": 8,
      "name": "Cubo",
      "rotation": [
        0.2295687347650528,
        -0.0008419751538895071,
        -0.0035698190331459045,
        0.9732856154441833
      ],
      "scale": [
        1.0,
        1.0,
        1.0
      ],
      "translation": [
        -0.07072359323501587,
        0.023248864337801933,
        -0.3303719460964203
      ]
    }
  ],
  "scenes": [
    {
      "nodes": [
        0
      ]
    }
  ]
}
