{
  "accessors": [
    {
      "bufferView": 0,
      "componentType": 5126,
      "count": 772,
      "max": [
        0.24117310345172882,
        0.252766877412796,
        0.0864953100681305
      ],
      "min": [
        -0.6806365251541138,
        -0.2916485071182251,
        -0.08649320155382156
      ],
      "type": "VEC3"
    },
    {
      "bufferView": 1,
      "componentType": 5126,
      "count": 772,
      "type": "VEC3"
    },
    {
      "bufferView": 2,
      "componentType": 5126,
      "count": 772,
      "type": "VEC2"
    },
    {
      "bufferView": 3,
      "componentType": 5125,
      "count": 1158,
      "type": "SCALAR"
    },
    {
      "bufferView": 4,
      "componentType": 5126,
      "count": 168,
      "max": [
        0.055111389607191086,
        0.19507916271686554,
        0.10393016785383224
      ],
      "min": [
        -0.056681714951992035,
        -0.2364107370376587,
        -0.10309359431266785
      ],
      "type": "VEC3"
    },
    {
      "bufferView": 5,
      "componentType": 5126,
      "count": 168,
      "type": "VEC3"
    },
    {
      "bufferView": 6,
      "componentType": 5126,
      "count": 168,
      "type": "VEC2"
    },
    {
      "bufferView": 7,
      "componentType": 5125,
      "count": 252,
      "type": "SCALAR"
    },
    {
      "bufferView": 8,
      "componentType": 5126,
      "count": 55,
      "max": [
        1.8000000715255737
      ],
      "min": [
        0.0
      ],
      "type": "SCALAR"
    },
    {
      "bufferView": 9,
      "componentType": 5126,
      "count": 55,
      "type": "VEC3"
    },
    {
      "bufferView": 10,
      "componentType": 5126,
      "count": 55,
      "max": [
        1.8000000715255737
      ],
      "min": [
        0.0
      ],
      "type": "SCALAR"
    },
    {
      "bufferView": 11,
      "componentType": 5126,
      "count": 55,
      "type": "VEC3"
    },
    {
      "bufferView": 12,
      "componentType": 5126,
      "count": 55,
      "max": [
        1.8000000715255737
      ],
      "min": [
        0.0
      ],
      "type": "SCALAR"
    },
    {
      "bufferView": 13,
      "componentType": 5126,
      "count": 55,
      "type": "VEC4"
    },
    {
      "bufferView": 14,
      "componentType": 5126,
      "count": 55,
      "max": [
        1.8000000715255737
      ],
      "min": [
        0.0
      ],
      "type": "SCALAR"
    },
    {
      "bufferView": 15,
      "componentType": 5126,
      "count": 55,
      "type": "VEC4"
    }
  ],
  "animations": [
    {
      "channels": [
        {
          "sampler": 0,
          "target": {
            "node": 0,
            "path": "translation"
          }
        },
        {
          "sampler": 1,
          "target": {
            "node": 2,
            "path": "translation"
          }
        },
        {
          "sampler": 2,
          "target": {
            "node": 0,
            "path": "rotation"
          }
        },
        {
          "sampler": 3,
          "target": {
            "node": 2,
            "path": "rotation"
          }
        }
      ],
      "name": "Animation",
      "samplers": [
        {
          "input": 8,
          "interpolation": "LINEAR",
          "output": 9
        },
        {
          "input": 10,
          "interpolation": "LINEAR",
          "output": 11
        },
        {
          "input": 12,
          "interpolation": "LINEAR",
          "output": 13
        },
        {
          "input": 14,
          "interpolation": "LINEAR",
          "output": 15
        }
      ]
    }
  ],
  "asset": {
    "generator": "Prisma3D Pro",
    "version": "2.0"
  },
  "bufferViews": [
    {
      "buffer": 0,
      "byteLength": 9264,
      "target": 34962
    },
    {
      "buffer": 1,
      "byteLength": 9264,
      "target": 34962
    },
    {
      "buffer": 2,
      "byteLength": 6176,
      "target": 34962
    },
    {
      "buffer": 3,
      "byteLength": 4632,
      "target": 34963
    },
    {
      "buffer": 4,
      "byteLength": 2016,
      "target": 34962
    },
    {
      "buffer": 5,
      "byteLength": 2016,
      "target": 34962
    },
    {
      "buffer": 6,
      "byteLength": 1344,
      "target": 34962
    },
    {
      "buffer": 7,
      "byteLength": 1008,
      "target": 34963
    },
    {
      "buffer": 8,
      "byteLength": 220
    },
    {
      "buffer": 9,
      "byteLength": 660
    },
    {
      "buffer": 10,
      "byteLength": 220
    },
    {
      "buffer": 11,
      "byteLength": 660
    },
    {
      "buffer": 12,
      "byteLength": 220
    },
    {
      "buffer": 13,
      "byteLength": 880
    },
    {
      "buffer": 14,
      "byteLength": 220
    },
    {
      "buffer": 15,
      "byteLength": 880
    }
  ],
  "buffers": [
    {
      "byteLength": 9264,
      "uri": "data:application/octet-stream;base64,"
    },
    {
      "byteLength": 9264,
      "uri": "data:application/octet-stream;base64,"
    },
    {
      "byteLength": 6176,
      "uri": "data:application/octet-stream;base64,"
    },
    {
      "byteLength": 4632,
      "uri": "data:application/octet-stream;base64,"
    },
    {
      "byteLength": 2016,
      "uri": "data:application/octet-stream;base64,"
    },
    {
      "byteLength": 2016,
      "uri": "data:application/octet-stream;base64,"
    },
    {
      "byteLength": 1344,
      "uri": "data:application/octet-stream;base64,"
    },
    {
      "byteLength": 1008,
      "uri": "data:application/octet-stream;base64,"
    },
    {
      "byteLength": 220,
      "uri": "data:application/octet-stream;base64,"
    },
    {
      "byteLength": 660,
      "uri": "data:application/octet-stream;base64,"
    },
    {
      "byteLength": 220,
      "uri": "data:application/octet-stream;base64,"
    },
    {
      "byteLength": 660,
      "uri": "data:application/octet-stream;base64,"
    },
    {
      "byteLength": 220,
      "uri": "data:application/octet-stream;base64,"
    },
    {
      "byteLength": 880,
      "uri": "data:application/octet-stream;base64,"
    },
    {
      "byteLength": 220,
      "uri": "data:application/octet-stream;base64,"
    },
    {
      "byteLength": 880,
      "uri": "data:application/octet-stream;base64,"
    }
  ],
  "materials": [
    {
      "doubleSided": true,
      "pbrMetallicRoughness": {
        "baseColorFactor": [
          0.2078431397676468,
          0.2078431397676468,
          0.2078431397676468,
          1.0
        ],
        "metallicFactor": 0.375,
        "roughnessFactor": 0.0
      }
    },
    {
      "doubleSided": true,
      "pbrMetallicRoughness": {
        "baseColorFactor": [
          0.34117648005485535,
          0.34117648005485535,
          0.34117648005485535,
          1.0
        ],
        "metallicFactor": 0.0,
        "roughnessFactor": 0.0
      }
    }
  ],
  "meshes": [
    {
      "primitives": [
        {
          "attributes": {
            "NORMAL": 1,
            "POSITION": 0,
            "TEXCOORD_0": 2
          },
          "indices": 3,
          "material": 0,
          "mode": 4
        }
      ]
    },
    {
      "primitives": [
        {
          "attributes": {
            "NORMAL": 5,
            "POSITION": 4,
            "TEXCOORD_0": 6
          },
          "indices": 7,
          "material": 1,
          "mode": 4
        }
      ]
    }
  ],
  "nodes": [
    {
      "children": [
        2,
        1
      ],
      "name": "Grupo",
      "rotation": [
        0.0,
        -0.0,
        -0.0,
        1.0
      ],
      "scale": [
        1.0,
        1.0,
        1.0
      ],
      "translation": [
        -0.0,
        0.0,
        0.0
      ]
    },
    {
      "mesh": 0,
      "name": "Cubo",
      "rotation": [
        -0.017075449228286743,
        -0.6913710236549377,
        -0.0056932782754302025,
        0.7222757339477539
      ],
      "scale": [
        1.0,
        1.0,
        1.0
      ],
      "translation": [
        0.5353786945343018,
        0.7497546076774597,
        -0.7167249917984009
      ]
    },
    {
      "mesh": 1,
      "name": "recarga",
      "rotation": [
        -0.0002282910281792283,
        0.009604966267943382,
        -0.02376083843410015,
        0.9996715188026428
      ],
      "scale": [
        1.0,
        1.0,
        1.0
      ],
      "translation": [
        0.5394524335861206,
        0.7314341068267822,
        -0.7132741212844849
      ]
    }
  ],
  "scenes": [
    {
      "nodes": [
        0
      ]
    }
  ]
}
