{
  "accessors": [
    {
      "bufferView": 0,
      "componentType": 5126,
      "count": 456,
      "max": [
        1.8187296390533447,
        5.381925106048584,
        1.7036503553390503
      ],
      "min": [
        -2.4251792430877686,
        -0.2408139556646347,
        -2.31197452545166
      ],
      "type": "VEC3"
    },
    {
      "bufferView": 1,
      "componentType": 5126,
      "count": 456,
      "type": "VEC3"
    },
    {
      "bufferView": 2,
      "componentType": 5126,
      "count": 456,
      "type": "VEC2"
    },
    {
      "bufferView": 3,
      "componentType": 5125,
      "count": 684,
      "type": "SCALAR"
    },
    {
      "bufferView": 4,
      "componentType": 5126,
      "count": 760,
      "max": [
        1.8350002765655518,
        1.2514220476150513,
        1.8350002765655518
      ],
      "min": [
        -1.8350002765655518,
        -1.2514220476150513,
        -1.8350002765655518
      ],
      "type": "VEC3"
    },
    {
      "bufferView": 5,
      "componentType": 5126,
      "count": 760,
      "type": "VEC3"
    },
    {
      "bufferView": 6,
      "componentType": 5126,
      "count": 760,
      "type": "VEC2"
    },
    {
      "bufferView": 7,
      "componentType": 5125,
      "count": 1080,
      "type": "SCALAR"
    },
    {
      "bufferView": 8,
      "componentType": 5126,
      "count": 760,
      "max": [
        1.8350002765655518,
        1.2514220476150513,
        1.8350002765655518
      ],
      "min": [
        -1.8350002765655518,
        -1.2514220476150513,
        -1.8350002765655518
      ],
      "type": "VEC3"
    },
    {
      "bufferView": 9,
      "componentType": 5126,
      "count": 760,
      "type": "VEC3"
    },
    {
      "bufferView": 10,
      "componentType": 5126,
      "count": 760,
      "type": "VEC2"
    },
    {
      "bufferView": 11,
      "componentType": 5125,
      "count": 1080,
      "type": "SCALAR"
    },
    {
      "bufferView": 12,
      "componentType": 5126,
      "count": 760,
      "max": [
        1.8350002765655518,
        1.2514220476150513,
        1.8350002765655518
      ],
      "min": [
        -1.8350002765655518,
        -1.2514220476150513,
        -1.8350002765655518
      ],
      "type": "VEC3"
    },
    {
      "bufferView": 13,
      "componentType": 5126,
      "count": 760,
      "type": "VEC3"
    },
    {
      "bufferView": 14,
      "componentType": 5126,
      "count": 760,
      "type": "VEC2"
    },
    {
      "bufferView": 15,
      "componentType": 5125,
      "count": 1080,
      "type": "SCALAR"
    },
    {
      "bufferView": 16,
      "componentType": 5126,
      "count": 760,
      "max": [
        1.8350002765655518,
        1.2514220476150513,
        1.8350002765655518
      ],
      "min": [
        -1.8350002765655518,
        -1.2514220476150513,
        -1.8350002765655518
      ],
      "type": "VEC3"
    },
    {
      "bufferView": 17,
      "componentType": 5126,
      "count": 760,
      "type": "VEC3"
    },
    {
      "bufferView": 18,
      "componentType": 5126,
      "count": 760,
      "type": "VEC2"
    },
    {
      "bufferView": 19,
      "componentType": 5125,
      "count": 1080,
      "type": "SCALAR"
    },
    {
      "bufferView": 20,
      "componentType": 5126,
      "count": 760,
      "max": [
        1.8350002765655518,
        1.2514220476150513,
        1.8350002765655518
      ],
      "min": [
        -1.8350002765655518,
        -1.2514220476150513,
        -1.8350002765655518
      ],
      "type": "VEC3"
    },
    {
      "bufferView": 21,
      "componentType": 5126,
      "count": 760,
      "type": "VEC3"
    },
    {
      "bufferView": 22,
      "componentType": 5126,
      "count": 760,
      "type": "VEC2"
    },
    {
      "bufferView": 23,
      "componentType": 5125,
      "count": 1080,
      "type": "SCALAR"
    }
  ],
  "asset": {
    "generator": "Prisma3D Pro",
    "version": "2.0"
  },
  "bufferViews": [
    {
      "buffer": 0,
      "byteLength": 5472,
      "target": 34962
    },
    {
      "buffer": 1,
      "byteLength": 5472,
      "target": 34962
    },
    {
      "buffer": 2,
      "byteLength": 3648,
      "target": 34962
    },
    {
      "buffer": 3,
      "byteLength": 2736,
      "target": 34963
    },
    {
      "buffer": 4,
      "byteLength": 9120,
      "target": 34962
    },
    {
      "buffer": 5,
      "byteLength": 9120,
      "target": 34962
    },
    {
      "buffer": 6,
      "byteLength": 6080,
      "target": 34962
    },
    {
      "buffer": 7,
      "byteLength": 4320,
      "target": 34963
    },
    {
      "buffer": 8,
      "byteLength": 9120,
      "target": 34962
    },
    {
      "buffer": 9,
      "byteLength": 9120,
      "target": 34962
    },
    {
      "buffer": 10,
      "byteLength": 6080,
      "target": 34962
    },
    {
      "buffer": 11,
      "byteLength": 4320,
      "target": 34963
    },
    {
      "buffer": 12,
      "byteLength": 9120,
      "target": 34962
    },
    {
      "buffer": 13,
      "byteLength": 9120,
      "target": 34962
    },
    {
      "buffer": 14,
      "byteLength": 6080,
      "target": 34962
    },
    {
      "buffer": 15,
      "byteLength": 4320,
      "target": 34963
    },
    {
      "buffer": 16,
      "byteLength": 9120,
      "target": 34962
    },
    {
      "buffer": 17,
      "byteLength": 9120,
      "target": 34962
    },
    {
      "buffer": 18,
      "byteLength": 6080,
      "target": 34962
    },
    {
      "buffer": 19,
      "byteLength": 4320,
      "target": 34963
    },
    {
      "buffer": 20,
      "byteLength": 9120,
      "target": 34962
    },
    {
      "buffer": 21,
      "byteLength": 9120,
      "target": 34962
    },
    {
      "buffer": 22,
      "byteLength": 6080,
      "target": 34962
    },
    {
      "buffer": 23,
      "byteLength": 4320,
      "target": 34963
    }
  ],
  "buffers": [
    {
      "byteLength": 5472,
      "uri": "data:application/octet-stream;base64,"
    },
    {
      "byteLength": 5472,
      "uri": "data:application/octet-stream;base64,"
    },
    {
      "byteLength": 3648,
      "uri": "data:application/octet-stream;base64,"
    },
    {
      "byteLength": 2736,
      "uri": "data:application/octet-stream;base64,"
    },
    {
      "byteLength": 9120,
      "uri": "data:application/octet-stream;base64,"
    },
    {
      "byteLength": 9120,
      "uri": "data:application/octet-stream;base64,"
    },
    {
      "byteLength": 6080,
      "uri": "data:application/octet-stream;base64,"
    },
    {
      "byteLength": 4320,
      "uri": "data:application/octet-stream;base64,"
    },
    {
      "byteLength": 9120,
      "uri": "data:application/octet-stream;base64,"
    },
    {
      "byteLength": 9120,
      "uri": "data:application/octet-stream;base64,"
    },
    {
      "byteLength": 6080,
      "uri": "data:application/octet-stream;base64,"
    },
    {
      "byteLength": 4320,
      "uri": "data:application/octet-stream;base64,"
    },
    {
      "byteLength": 9120,
      "uri": "data:application/octet-stream;base64,"
    },
    {
      "byteLength": 9120,
      "uri": "data:application/octet-stream;base64,"
    },
    {
      "byteLength": 6080,
      "uri": "data:application/octet-stream;base64,"
    },
    {
      "byteLength": 4320,
      "uri": "data:application/octet-stream;base64,"
    },
    {
      "byteLength": 9120,
      "uri": "data:application/octet-stream;base64,"
    },
    {
      "byteLength": 9120,
      "uri": "data:application/octet-stream;base64,"
    },
    {
      "byteLength": 6080,
      "uri": "data:application/octet-stream;base64,"
    },
    {
      "byteLength": 4320,
      "uri": "data:application/octet-stream;base64,"
    },
    {
      "byteLength": 9120,
      "uri": "data:application/octet-stream;base64,"
    },
    {
      "byteLength": 9120,
      "uri": "data:application/octet-stream;base64,"
    },
    {
      "byteLength": 6080,
      "uri": "data:application/octet-stream;base64,"
    },
    {
      "byteLength": 4320,
      "uri": "data:application/octet-stream;base64,"
    }
  ],
  "materials": [
    {
      "doubleSided": true,
      "pbrMetallicRoughness": {
        "baseColorFactor": [
          0.45098039507865906,
          0.43529412150382996,
          0.37254902720451355,
          1.0
        ],
        "metallicFactor": 0.0,
        "roughnessFactor": 0.0
      }
    },
    {
      "doubleSided": true,
      "pbrMetallicRoughness": {
        "baseColorFactor": [
          0.3450980484485626,
          0.4156862795352936,
          0.3607843220233917,
          1.0
        ],
        "metallicFactor": 0.0,
        "roughnessFactor": 0.0
      }
    },
    {
      "doubleSided": true,
      "pbrMetallicRoughness": {
        "baseColorFactor": [
          0.3450980484485626,
          0.4156862795352936,
          0.3607843220233917,
          1.0
        ],
        "metallicFactor": 0.0,
        "roughnessFactor": 0.0
      }
    },
    {
      "doubleSided": true,
      "pbrMetallicRoughness": {
        "baseColorFactor": [
          0.3450980484485626,
          0.4156862795352936,
          0.3607843220233917,
          1.0
        ],
        "metallicFactor": 0.0,
        "roughnessFactor": 0.0
      }
    },
    {
      "doubleSided": true,
      "pbrMetallicRoughness": {
        "baseColorFactor": [
          0.3450980484485626,
          0.4156862795352936,
          0.3607843220233917,
          1.0
        ],
        "metallicFactor": 0.0,
        "roughnessFactor": 0.0
      }
    },
    {
      "doubleSided": true,
      "pbrMetallicRoughness": {
        "baseColorFactor": [
          0.3450980484485626,
          0.4156862795352936,
          0.3607843220233917,
          1.0
        ],
        "metallicFactor": 0.0,
        "roughnessFactor": 0.0
      }
    }
  ],
  "meshes": [
    {
      "primitives": [
        {
          "attributes": {
            "NORMAL": 1,
            "POSITION": 0,
            "TEXCOORD_0": 2
          },
          "indices": 3,
          "material": 0,
          "mode": 4
        }
      ]
    },
    {
      "primitives": [
        {
          "attributes": {
            "NORMAL": 5,
            "POSITION": 4,
            "TEXCOORD_0": 6
          },
          "indices": 7,
          "material": 1,
          "mode": 4
        }
      ]
    },
    {
      "primitives": [
        {
          "attributes": {
            "NORMAL": 9,
            "POSITION": 8,
            "TEXCOORD_0": 10
          },
          "indices": 11,
          "material": 2,
          "mode": 4
        }
      ]
    },
    {
      "primitives": [
        {
          "attributes": {
            "NORMAL": 13,
            "POSITION": 12,
            "TEXCOORD_0": 14
          },
          "indices": 15,
          "material": 3,
          "mode": 4
        }
      ]
    },
    {
      "primitives": [
        {
          "attributes": {
            "NORMAL": 17,
            "POSITION": 16,
            "TEXCOORD_0": 18
          },
          "indices": 19,
          "material": 4,
          "mode": 4
        }
      ]
    },
    {
      "primitives": [
        {
          "attributes": {
            "NORMAL": 21,
            "POSITION": 20,
            "TEXCOORD_0": 22
          },
          "indices": 23,
          "material": 5,
          "mode": 4
        }
      ]
    }
  ],
  "nodes": [
    {
      "children": [
        7,
        6,
        5,
        4,
        3,
        1
      ],
      "name": "Grupo",
      "rotation": [
        0.0,
        -0.0,
        -0.0,
        1.0
      ],
      "scale": [
        1.0,
        1.0,
        1.0
      ],
      "translation": [
        -0.0,
        2.7157895488016948e-08,
        -0.22781705856323242
      ]
    },
    {
      "children": [
        2
      ],
      "name": "Grupo",
      "rotation": [
        0.0,
        -0.0,
        -0.0,
        1.0
      ],
      "scale": [
        1.0,
        1.0,
        1.0
      ],
      "translation": [
        -0.0,
        1.6777749061584473,
        0.0
      ]
    },
    {
      "mesh": 0,
      "name": "Cubo",
      "rotation": [
        0.0,
        -0.0,
        -0.0,
        1.0
      ],
      "scale": [
        1.0,
        1.0,
        1.0
      ],
      "translation": [
        -0.02392510324716568,
        -1.525979995727539,
        0.0
      ]
    },
    {
      "mesh": 1,
      "name": "Esfera",
      "rotation": [
        0.0,
        -0.0,
        -0.0,
        1.0
      ],
      "scale": [
        1.0,
        1.0,
        1.0
      ],
      "translation": [
        -0.0,
        4.431279182434082,
        -0.4009283185005188
      ]
    },
    {
      "mesh": 2,
      "name": "Esfera",
      "rotation": [
        0.0,
        -0.0,
        -0.0,
        1.0
      ],
      "scale": [
        1.0,
        1.0,
        1.0
      ],
      "translation": [
        -0.663445770740509,
        4.746570587158203,
        0.6445313096046448
      ]
    },
    {
      "mesh": 3,
      "name": "Esfera",
      "rotation": [
        0.0,
        -0.0,
        -0.0,
        1.0
      ],
      "scale": [
        1.0,
        1.0,
        1.0
      ],
      "translation": [
        -1.2009652853012085,
        4.746570587158203,
        -0.8308805227279663
      ]
    },
    {
      "mesh": 4,
      "name": "Esfera",
      "rotation": [
        0.0,
        -0.0,
        -0.0,
        1.0
      ],
      "scale": [
        1.0,
        1.0,
        1.0
      ],
      "translation": [
        0.029811222106218338,
        4.521063804626465,
        -1.3042023181915283
      ]
    },
    {
      "mesh": 5,
      "name": "Esfera",
      "rotation": [
        0.0,
        -0.0,
        -0.0,
        1.0
      ],
      "scale": [
        1.0,
        1.0,
        1.0
      ],
      "translation": [
        0.5202161073684692,
        4.159425735473633,
        -0.06164875626564026
      ]
    }
  ],
  "scenes": [
    {
      "nodes": [
        0
      ]
    }
  ]
}
