{
  "accessors": [
    {
      "bufferView": 0,
      "componentType": 5126,
      "count": 184,
      "max": [
        0.25184395909309387,
        1.1848515272140503,
        0.1504075676202774
      ],
      "min": [
        -0.38681408762931824,
        -0.21932870149612427,
        -0.1382845789194107
      ],
      "type": "VEC3"
    },
    {
      "bufferView": 1,
      "componentType": 5126,
      "count": 184,
      "type": "VEC3"
    },
    {
      "bufferView": 2,
      "componentType": 5126,
      "count": 184,
      "type": "VEC2"
    },
    {
      "bufferView": 3,
      "componentType": 5125,
      "count": 276,
      "type": "SCALAR"
    },
    {
      "bufferView": 4,
      "componentType": 5126,
      "count": 55,
      "max": [
        1.8000000715255737
      ],
      "min": [
        0.0
      ],
      "type": "SCALAR"
    },
    {
      "bufferView": 5,
      "componentType": 5126,
      "count": 55,
      "type": "VEC3"
    },
    {
      "bufferView": 6,
      "componentType": 5126,
      "count": 55,
      "max": [
        1.8000000715255737
      ],
      "min": [
        0.0
      ],
      "type": "SCALAR"
    },
    {
      "bufferView": 7,
      "componentType": 5126,
      "count": 55,
      "type": "VEC4"
    }
  ],
  "animations": [
    {
      "channels": [
        {
          "sampler": 0,
          "target": {
            "node": 0,
            "path": "translation"
          }
        },
        {
          "sampler": 1,
          "target": {
            "node": 0,
            "path": "rotation"
          }
        }
      ],
      "name": "Animation",
      "samplers": [
        {
          "input": 4,
          "interpolation": "LINEAR",
          "output": 5
        },
        {
          "input": 6,
          "interpolation": "LINEAR",
          "output": 7
        }
      ]
    }
  ],
  "asset": {
    "generator": "Prisma3D Pro",
    "version": "2.0"
  },
  "bufferViews": [
    {
      "buffer": 0,
      "byteLength": 2208,
      "target": 34962
    },
    {
      "buffer": 1,
      "byteLength": 2208,
      "target": 34962
    },
    {
      "buffer": 2,
      "byteLength": 1472,
      "target": 34962
    },
    {
      "buffer": 3,
      "byteLength": 1104,
      "target": 34963
    },
    {
      "buffer": 4,
      "byteLength": 220
    },
    {
      "buffer": 5,
      "byteLength": 660
    },
    {
      "buffer": 6,
      "byteLength": 220
    },
    {
      "buffer": 7,
      "byteLength": 880
    }
  ],
  "buffers": [
    {
      "byteLength": 2208,
      "uri": "data:application/octet-stream;base64,"
    },
    {
      "byteLength": 2208,
      "uri": "data:application/octet-stream;base64,"
    },
    {
      "byteLength": 1472,
      "uri": "data:application/octet-stream;base64,"
    },
    {
      "byteLength": 1104,
      "uri": "data:application/octet-stream;base64,"
    },
    {
      "byteLength": 220,
      "uri": "data:application/octet-stream;base64,"
    },
    {
      "byteLength": 660,
      "uri": "data:application/octet-stream;base64,"
    },
    {
      "byteLength": 220,
      "uri": "data:application/octet-stream;base64,"
    },
    {
      "byteLength": 880,
      "uri": "data:application/octet-stream;base64,"
    }
  ],
  "materials": [
    {
      "doubleSided": true,
      "pbrMetallicRoughness": {
        "baseColorFactor": [
          0.23529411852359772,
          0.22745098173618317,
          0.20392157137393951,
          1.0
        ],
        "metallicFactor": 0.0,
        "roughnessFactor": 0.0
      }
    }
  ],
  "meshes": [
    {
      "primitives": [
        {
          "attributes": {
            "NORMAL": 1,
            "POSITION": 0,
            "TEXCOORD_0": 2
          },
          "indices": 3,
          "material": 0,
          "mode": 4
        }
      ]
    }
  ],
  "nodes": [
    {
      "mesh": 0,
      "name": "hacha",
      "rotation": [
        0.0,
        -0.7250227928161621,
        -0.0,
        0.6887248754501343
      ],
      "scale": [
        1.0,
        1.0,
        1.0
      ],
      "translation": [
        -0.4672326445579529,
        0.37812402844429016,
        -0.8193735480308533
      ]
    }
  ],
  "scenes": [
    {
      "nodes": [
        0
      ]
    }
  ]
}
