{
  "accessors": [
    {
      "bufferView": 0,
      "componentType": 5126,
      "count": 264,
      "max": [
        0.5,
        0.4096457362174988,
        1.1676675081253052
      ],
      "min": [
        -1.1040550470352173,
        -0.05638476833701134,
        -1.0713701248168945
      ],
      "type": "VEC3"
    },
    {
      "bufferView": 1,
      "componentType": 5126,
      "count": 264,
      "type": "VEC3"
    },
    {
      "bufferView": 2,
      "componentType": 5126,
      "count": 264,
      "type": "VEC2"
    },
    {
      "bufferView": 3,
      "componentType": 5125,
      "count": 396,
      "type": "SCALAR"
    },
    {
      "bufferView": 4,
      "componentType": 5126,
      "count": 264,
      "max": [
        0.5,
        0.4096457362174988,
        1.1676675081253052
      ],
      "min": [
        -1.1040550470352173,
        -0.05638476833701134,
        -1.0713701248168945
      ],
      "type": "VEC3"
    },
    {
      "bufferView": 5,
      "componentType": 5126,
      "count": 264,
      "type": "VEC3"
    },
    {
      "bufferView": 6,
      "componentType": 5126,
      "count": 264,
      "type": "VEC2"
    },
    {
      "bufferView": 7,
      "componentType": 5125,
      "count": 396,
      "type": "SCALAR"
    }
  ],
  "asset": {
    "generator": "Prisma3D Pro",
    "version": "2.0"
  },
  "bufferViews": [
    {
      "buffer": 0,
      "byteLength": 3168,
      "target": 34962
    },
    {
      "buffer": 1,
      "byteLength": 3168,
      "target": 34962
    },
    {
      "buffer": 2,
      "byteLength": 2112,
      "target": 34962
    },
    {
      "buffer": 3,
      "byteLength": 1584,
      "target": 34963
    },
    {
      "buffer": 4,
      "byteLength": 3168,
      "target": 34962
    },
    {
      "buffer": 5,
      "byteLength": 3168,
      "target": 34962
    },
    {
      "buffer": 6,
      "byteLength": 2112,
      "target": 34962
    },
    {
      "buffer": 7,
      "byteLength": 1584,
      "target": 34963
    }
  ],
  "buffers": [
    {
      "byteLength": 3168,
      "uri": "data:application/octet-stream;base64,"
    },
    {
      "byteLength": 3168,
      "uri": "data:application/octet-stream;base64,"
    },
    {
      "byteLength": 2112,
      "uri": "data:application/octet-stream;base64,"
    },
    {
      "byteLength": 1584,
      "uri": "data:application/octet-stream;base64,"
    },
    {
      "byteLength": 3168,
      "uri": "data:application/octet-stream;base64,"
    },
    {
      "byteLength": 3168,
      "uri": "data:application/octet-stream;base64,"
    },
    {
      "byteLength": 2112,
      "uri": "data:application/octet-stream;base64,"
    },
    {
      "byteLength": 1584,
      "uri": "data:application/octet-stream;base64,"
    }
  ],
  "materials": [
    {
      "doubleSided": true,
      "pbrMetallicRoughness": {
        "baseColorFactor": [
          0.5069986581802368,
          0.5069986581802368,
          0.5069986581802368,
          1.0
        ],
        "metallicFactor": 0.0,
        "roughnessFactor": 0.0
      }
    },
    {
      "doubleSided": true,
      "pbrMetallicRoughness": {
        "baseColorFactor": [
          0.5069986581802368,
          0.5069986581802368,
          0.5069986581802368,
          1.0
        ],
        "metallicFactor": 0.0,
        "roughnessFactor": 0.0
      }
    }
  ],
  "meshes": [
    {
      "primitives": [
        {
          "attributes": {
            "NORMAL": 1,
            "POSITION": 0,
            "TEXCOORD_0": 2
          },
          "indices": 3,
          "material": 0,
          "mode": 4
        }
      ]
    },
    {
      "primitives": [
        {
          "attributes": {
            "NORMAL": 5,
            "POSITION": 4,
            "TEXCOORD_0": 6
          },
          "indices": 7,
          "material": 1,
          "mode": 4
        }
      ]
    }
  ],
  "nodes": [
    {
      "children": [
        2,
        1
      ],
      "name": "piedra",
      "rotation": [
        0.0,
        -0.0,
        -0.0,
        1.0
      ],
      "scale": [
        1.0,
        1.0,
        1.0
      ],
      "translation": [
        -0.0,
        0.0,
        0.0
      ]
    },
    {
      "mesh": 0,
      "name": "Cubo",
      "rotation": [
        0.0,
        -0.0,
        -0.0,
        1.0
      ],
      "scale": [
        1.0,
        1.0,
        1.0
      ],
      "translation": [
        -0.0,
        0.044090449810028076,
        0.0
      ]
    },
    {
      "mesh": 1,
      "name": "Cubo",
      "rotation": [
        0.0,
        -0.9998502731323242,
        -0.0,
        -0.01730598695576191
      ],
      "scale": [
        1.0,
        1.0,
        1.0
      ],
      "translation": [
        -0.0,
        0.044090449810028076,
        0.0
      ]
    }
  ],
  "scenes": [
    {
      "nodes": [
        0
      ]
    }
  ]
}
