{
  "accessors": [
    {
      "bufferView": 0,
      "componentType": 5126,
      "count": 248,
      "max": [
        0.6099257469177246,
        1.8672462701797485,
        0.6376258134841919
      ],
      "min": [
        -0.5526565313339233,
        -0.08312254399061203,
        -0.6154488921165466
      ],
      "type": "VEC3"
    },
    {
      "bufferView": 1,
      "componentType": 5126,
      "count": 248,
      "type": "VEC3"
    },
    {
      "bufferView": 2,
      "componentType": 5126,
      "count": 248,
      "type": "VEC2"
    },
    {
      "bufferView": 3,
      "componentType": 5125,
      "count": 372,
      "type": "SCALAR"
    },
    {
      "bufferView": 4,
      "componentType": 5126,
      "count": 56,
      "max": [
        0.4892445206642151,
        0.2736036777496338,
        0.08775884658098221
      ],
      "min": [
        -0.09638626873493195,
        -0.0207515861839056,
        -0.0877588763833046
      ],
      "type": "VEC3"
    },
    {
      "bufferView": 5,
      "componentType": 5126,
      "count": 56,
      "type": "VEC3"
    },
    {
      "bufferView": 6,
      "componentType": 5126,
      "count": 56,
      "type": "VEC2"
    },
    {
      "bufferView": 7,
      "componentType": 5125,
      "count": 84,
      "type": "SCALAR"
    },
    {
      "bufferView": 8,
      "componentType": 5126,
      "count": 56,
      "max": [
        0.4892445206642151,
        0.273603618144989,
        0.0877588614821434
      ],
      "min": [
        -0.09638622403144836,
        -0.02075169049203396,
        -0.08775883167982101
      ],
      "type": "VEC3"
    },
    {
      "bufferView": 9,
      "componentType": 5126,
      "count": 56,
      "type": "VEC3"
    },
    {
      "bufferView": 10,
      "componentType": 5126,
      "count": 56,
      "type": "VEC2"
    },
    {
      "bufferView": 11,
      "componentType": 5125,
      "count": 84,
      "type": "SCALAR"
    },
    {
      "bufferView": 12,
      "componentType": 5126,
      "count": 56,
      "max": [
        0.48924487829208374,
        0.27360379695892334,
        0.08775884658098221
      ],
      "min": [
        -0.09638608992099762,
        -0.02075144834816456,
        -0.0877588763833046
      ],
      "type": "VEC3"
    },
    {
      "bufferView": 13,
      "componentType": 5126,
      "count": 56,
      "type": "VEC3"
    },
    {
      "bufferView": 14,
      "componentType": 5126,
      "count": 56,
      "type": "VEC2"
    },
    {
      "bufferView": 15,
      "componentType": 5125,
      "count": 84,
      "type": "SCALAR"
    },
    {
      "bufferView": 16,
      "componentType": 5126,
      "count": 56,
      "max": [
        0.48924434185028076,
        0.27360373735427856,
        0.08775883167982101
      ],
      "min": [
        -0.09638632833957672,
        -0.020751575008034706,
        -0.08775889128446579
      ],
      "type": "VEC3"
    },
    {
      "bufferView": 17,
      "componentType": 5126,
      "count": 56,
      "type": "VEC3"
    },
    {
      "bufferView": 18,
      "componentType": 5126,
      "count": 56,
      "type": "VEC2"
    },
    {
      "bufferView": 19,
      "componentType": 5125,
      "count": 84,
      "type": "SCALAR"
    },
    {
      "bufferView": 20,
      "componentType": 5126,
      "count": 760,
      "max": [
        0.15073928236961365,
        0.15307499468326569,
        0.1689552664756775
      ],
      "min": [
        -0.1466950625181198,
        -0.18054495751857758,
        -0.16918142139911652
      ],
      "type": "VEC3"
    },
    {
      "bufferView": 21,
      "componentType": 5126,
      "count": 760,
      "type": "VEC3"
    },
    {
      "bufferView": 22,
      "componentType": 5126,
      "count": 760,
      "type": "VEC2"
    },
    {
      "bufferView": 23,
      "componentType": 5125,
      "count": 1080,
      "type": "SCALAR"
    },
    {
      "bufferView": 24,
      "componentType": 5126,
      "count": 760,
      "max": [
        0.1324968934059143,
        0.21734914183616638,
        0.14850865304470062
      ],
      "min": [
        -0.1289421170949936,
        -0.25635337829589844,
        -0.14870721101760864
      ],
      "type": "VEC3"
    },
    {
      "bufferView": 25,
      "componentType": 5126,
      "count": 760,
      "type": "VEC3"
    },
    {
      "bufferView": 26,
      "componentType": 5126,
      "count": 760,
      "type": "VEC2"
    },
    {
      "bufferView": 27,
      "componentType": 5125,
      "count": 1080,
      "type": "SCALAR"
    },
    {
      "bufferView": 28,
      "componentType": 5126,
      "count": 760,
      "max": [
        0.1315368413925171,
        0.13357488811016083,
        0.14743219316005707
      ],
      "min": [
        -0.1280076950788498,
        -0.15754562616348267,
        -0.1476297676563263
      ],
      "type": "VEC3"
    },
    {
      "bufferView": 29,
      "componentType": 5126,
      "count": 760,
      "type": "VEC3"
    },
    {
      "bufferView": 30,
      "componentType": 5126,
      "count": 760,
      "type": "VEC2"
    },
    {
      "bufferView": 31,
      "componentType": 5125,
      "count": 1080,
      "type": "SCALAR"
    },
    {
      "bufferView": 32,
      "componentType": 5126,
      "count": 760,
      "max": [
        0.15629830956459045,
        0.1587204486131668,
        0.17518624663352966
      ],
      "min": [
        -0.1521051824092865,
        -0.18720309436321259,
        -0.1754205822944641
      ],
      "type": "VEC3"
    },
    {
      "bufferView": 33,
      "componentType": 5126,
      "count": 760,
      "type": "VEC3"
    },
    {
      "bufferView": 34,
      "componentType": 5126,
      "count": 760,
      "type": "VEC2"
    },
    {
      "bufferView": 35,
      "componentType": 5125,
      "count": 1080,
      "type": "SCALAR"
    }
  ],
  "asset": {
    "generator": "Prisma3D Pro",
    "version": "2.0"
  },
  "bufferViews": [
    {
      "buffer": 0,
      "byteLength": 2976,
      "target": 34962
    },
    {
      "buffer": 1,
      "byteLength": 2976,
      "target": 34962
    },
    {
      "buffer": 2,
      "byteLength": 1984,
      "target": 34962
    },
    {
      "buffer": 3,
      "byteLength": 1488,
      "target": 34963
    },
    {
      "buffer": 4,
      "byteLength": 672,
      "target": 34962
    },
    {
      "buffer": 5,
      "byteLength": 672,
      "target": 34962
    },
    {
      "buffer": 6,
      "byteLength": 448,
      "target": 34962
    },
    {
      "buffer": 7,
      "byteLength": 336,
      "target": 34963
    },
    {
      "buffer": 8,
      "byteLength": 672,
      "target": 34962
    },
    {
      "buffer": 9,
      "byteLength": 672,
      "target": 34962
    },
    {
      "buffer": 10,
      "byteLength": 448,
      "target": 34962
    },
    {
      "buffer": 11,
      "byteLength": 336,
      "target": 34963
    },
    {
      "buffer": 12,
      "byteLength": 672,
      "target": 34962
    },
    {
      "buffer": 13,
      "byteLength": 672,
      "target": 34962
    },
    {
      "buffer": 14,
      "byteLength": 448,
      "target": 34962
    },
    {
      "buffer": 15,
      "byteLength": 336,
      "target": 34963
    },
    {
      "buffer": 16,
      "byteLength": 672,
      "target": 34962
    },
    {
      "buffer": 17,
      "byteLength": 672,
      "target": 34962
    },
    {
      "buffer": 18,
      "byteLength": 448,
      "target": 34962
    },
    {
      "buffer": 19,
      "byteLength": 336,
      "target": 34963
    },
    {
      "buffer": 20,
      "byteLength": 9120,
      "target": 34962
    },
    {
      "buffer": 21,
      "byteLength": 9120,
      "target": 34962
    },
    {
      "buffer": 22,
      "byteLength": 6080,
      "target": 34962
    },
    {
      "buffer": 23,
      "byteLength": 4320,
      "target": 34963
    },
    {
      "buffer": 24,
      "byteLength": 9120,
      "target": 34962
    },
    {
      "buffer": 25,
      "byteLength": 9120,
      "target": 34962
    },
    {
      "buffer": 26,
      "byteLength": 6080,
      "target": 34962
    },
    {
      "buffer": 27,
      "byteLength": 4320,
      "target": 34963
    },
    {
      "buffer": 28,
      "byteLength": 9120,
      "target": 34962
    },
    {
      "buffer": 29,
      "byteLength": 9120,
      "target": 34962
    },
    {
      "buffer": 30,
      "byteLength": 6080,
      "target": 34962
    },
    {
      "buffer": 31,
      "byteLength": 4320,
      "target": 34963
    },
    {
      "buffer": 32,
      "byteLength": 9120,
      "target": 34962
    },
    {
      "buffer": 33,
      "byteLength": 9120,
      "target": 34962
    },
    {
      "buffer": 34,
      "byteLength": 6080,
      "target": 34962
    },
    {
      "buffer": 35,
      "byteLength": 4320,
      "target": 34963
    }
  ],
  "buffers": [
    {
      "byteLength": 2976,
      "uri": "data:application/octet-stream;base64,"
    },
    {
      "byteLength": 2976,
      "uri": "data:application/octet-stream;base64,"
    },
    {
      "byteLength": 1984,
      "uri": "data:application/octet-stream;base64,"
    },
    {
      "byteLength": 1488,
      "uri": "data:application/octet-stream;base64,"
    },
    {
      "byteLength": 672,
      "uri": "data:application/octet-stream;base64,"
    },
    {
      "byteLength": 672,
      "uri": "data:application/octet-stream;base64,"
    },
    {
      "byteLength": 448,
      "uri": "data:application/octet-stream;base64,"
    },
    {
      "byteLength": 336,
      "uri": "data:application/octet-stream;base64,"
    },
    {
      "byteLength": 672,
      "uri": "data:application/octet-stream;base64,"
    },
    {
      "byteLength": 672,
      "uri": "data:application/octet-stream;base64,"
    },
    {
      "byteLength": 448,
      "uri": "data:application/octet-stream;base64,"
    },
    {
      "byteLength": 336,
      "uri": "data:application/octet-stream;base64,"
    },
    {
      "byteLength": 672,
      "uri": "data:application/octet-stream;base64,"
    },
    {
      "byteLength": 672,
      "uri": "data:application/octet-stream;base64,"
    },
    {
      "byteLength": 448,
      "uri": "data:application/octet-stream;base64,"
    },
    {
      "byteLength": 336,
      "uri": "data:application/octet-stream;base64,"
    },
    {
      "byteLength": 672,
      "uri": "data:application/octet-stream;base64,"
    },
    {
      "byteLength": 672,
      "uri": "data:application/octet-stream;base64,"
    },
    {
      "byteLength": 448,
      "uri": "data:application/octet-stream;base64,"
    },
    {
      "byteLength": 336,
      "uri": "data:application/octet-stream;base64,"
    },
    {
      "byteLength": 9120,
      "uri": "data:application/octet-stream;base64,"
    },
    {
      "byteLength": 9120,
      "uri": "data:application/octet-stream;base64,"
    },
    {
      "byteLength": 6080,
      "uri": "data:application/octet-stream;base64,"
    },
    {
      "byteLength": 4320,
      "uri": "data:application/octet-stream;base64,"
    },
    {
      "byteLength": 9120,
      "uri": "data:application/octet-stream;base64,"
    },
    {
      "byteLength": 9120,
      "uri": "data:application/octet-stream;base64,"
    },
    {
      "byteLength": 6080,
      "uri": "data:application/octet-stream;base64,"
    },
    {
      "byteLength": 4320,
      "uri": "data:application/octet-stream;base64,"
    },
    {
      "byteLength": 9120,
      "uri": "data:application/octet-stream;base64,"
    },
    {
      "byteLength": 9120,
      "uri": "data:application/octet-stream;base64,"
    },
    {
      "byteLength": 6080,
      "uri": "data:application/octet-stream;base64,"
    },
    {
      "byteLength": 4320,
      "uri": "data:application/octet-stream;base64,"
    },
    {
      "byteLength": 9120,
      "uri": "data:application/octet-stream;base64,"
    },
    {
      "byteLength": 9120,
      "uri": "data:application/octet-stream;base64,"
    },
    {
      "byteLength": 6080,
      "uri": "data:application/octet-stream;base64,"
    },
    {
      "byteLength": 4320,
      "uri": "data:application/octet-stream;base64,"
    }
  ],
  "materials": [
    {
      "doubleSided": true,
      "pbrMetallicRoughness": {
        "baseColorFactor": [
          0.4784314036369324,
          0.6823529601097107,
          0.43529409170150757,
          1.0
        ],
        "metallicFactor": 0.0,
        "roughnessFactor": 0.0
      }
    },
    {
      "doubleSided": true,
      "pbrMetallicRoughness": {
        "baseColorFactor": [
          0.4784314036369324,
          0.6823529601097107,
          0.43529409170150757,
          1.0
        ],
        "metallicFactor": 0.0,
        "roughnessFactor": 0.0
      }
    },
    {
      "doubleSided": true,
      "pbrMetallicRoughness": {
        "baseColorFactor": [
          0.4784314036369324,
          0.6823529601097107,
          0.43529409170150757,
          1.0
        ],
        "metallicFactor": 0.0,
        "roughnessFactor": 0.0
      }
    },
    {
      "doubleSided": true,
      "pbrMetallicRoughness": {
        "baseColorFactor": [
          0.4784314036369324,
          0.6823529601097107,
          0.43529409170150757,
          1.0
        ],
        "metallicFactor": 0.0,
        "roughnessFactor": 0.0
      }
    },
    {
      "doubleSided": true,
      "pbrMetallicRoughness": {
        "baseColorFactor": [
          0.4784314036369324,
          0.6823529601097107,
          0.43529409170150757,
          1.0
        ],
        "metallicFactor": 0.0,
        "roughnessFactor": 0.0
      }
    },
    {
      "doubleSided": true,
      "pbrMetallicRoughness": {
        "baseColorFactor": [
          0.7960784435272217,
          1.0,
          0.8196078538894653,
          1.0
        ],
        "metallicFactor": 0.0,
        "roughnessFactor": 0.0
      }
    },
    {
      "doubleSided": true,
      "pbrMetallicRoughness": {
        "baseColorFactor": [
          0.7960784435272217,
          1.0,
          0.8196078538894653,
          1.0
        ],
        "metallicFactor": 0.0,
        "roughnessFactor": 0.0
      }
    },
    {
      "doubleSided": true,
      "pbrMetallicRoughness": {
        "baseColorFactor": [
          0.7960784435272217,
          1.0,
          0.8196078538894653,
          1.0
        ],
        "metallicFactor": 0.0,
        "roughnessFactor": 0.0
      }
    },
    {
      "doubleSided": true,
      "pbrMetallicRoughness": {
        "baseColorFactor": [
          0.7960784435272217,
          1.0,
          0.8196078538894653,
          1.0
        ],
        "metallicFactor": 0.0,
        "roughnessFactor": 0.0
      }
    }
  ],
  "meshes": [
    {
      "primitives": [
        {
          "attributes": {
            "NORMAL": 1,
            "POSITION": 0,
            "TEXCOORD_0": 2
          },
          "indices": 3,
          "material": 0,
          "mode": 4
        }
      ]
    },
    {
      "primitives": [
        {
          "attributes": {
            "NORMAL": 5,
            "POSITION": 4,
            "TEXCOORD_0": 6
          },
          "indices": 7,
          "material": 1,
          "mode": 4
        }
      ]
    },
    {
      "primitives": [
        {
          "attributes": {
            "NORMAL": 9,
            "POSITION": 8,
            "TEXCOORD_0": 10
          },
          "indices": 11,
          "material": 2,
          "mode": 4
        }
      ]
    },
    {
      "primitives": [
        {
          "attributes": {
            "NORMAL": 13,
            "POSITION": 12,
            "TEXCOORD_0": 14
          },
          "indices": 15,
          "material": 3,
          "mode": 4
        }
      ]
    },
    {
      "primitives": [
        {
          "attributes": {
            "NORMAL": 17,
            "POSITION": 16,
            "TEXCOORD_0": 18
          },
          "indices": 19,
          "material": 4,
          "mode": 4
        }
      ]
    },
    {
      "primitives": [
        {
          "attributes": {
            "NORMAL": 21,
            "POSITION": 20,
            "TEXCOORD_0": 22
          },
          "indices": 23,
          "material": 5,
          "mode": 4
        }
      ]
    },
    {
      "primitives": [
        {
          "attributes": {
            "NORMAL": 25,
            "POSITION": 24,
            "TEXCOORD_0": 26
          },
          "indices": 27,
          "material": 6,
          "mode": 4
        }
      ]
    },
    {
      "primitives": [
        {
          "attributes": {
            "NORMAL": 29,
            "POSITION": 28,
            "TEXCOORD_0": 30
          },
          "indices": 31,
          "material": 7,
          "mode": 4
        }
      ]
    },
    {
      "primitives": [
        {
          "attributes": {
            "NORMAL": 33,
            "POSITION": 32,
            "TEXCOORD_0": 34
          },
          "indices": 35,
          "material": 8,
          "mode": 4
        }
      ]
    }
  ],
  "nodes": [
    {
      "children": [
        9,
        8,
        7,
        6,
        5,
        4,
        3,
        2,
        1
      ],
      "name": "planta de lechuga",
      "rotation": [
        0.0,
        -0.0,
        -0.0,
        1.0
      ],
      "scale": [
        1.0,
        1.0,
        1.0
      ],
      "translation": [
        -0.0,
        0.0,
        0.0
      ]
    },
    {
      "mesh": 0,
      "name": "Cubo",
      "rotation": [
        0.0,
        -0.0,
        -0.0,
        1.0
      ],
      "scale": [
        1.0,
        1.0,
        1.0
      ],
      "translation": [
        -0.0,
        0.0,
        0.0
      ]
    },
    {
      "mesh": 1,
      "name": "Cubo",
      "rotation": [
        -2.8540450003333717e-09,
        1.868835575180583e-08,
        -0.2843296229839325,
        0.9587265849113464
      ],
      "scale": [
        1.0,
        1.0,
        1.0
      ],
      "translation": [
        0.049092091619968414,
        0.5238971710205078,
        2.2566895019338062e-09
      ]
    },
    {
      "mesh": 2,
      "name": "Cubo",
      "rotation": [
        0.241228848695755,
        -0.7458964586257935,
        0.2701466977596283,
        -0.5589883327484131
      ],
      "scale": [
        1.0,
        1.0,
        1.0
      ],
      "translation": [
        -0.019250063225626945,
        0.8168668746948242,
        -0.08025578409433365
      ]
    },
    {
      "mesh": 3,
      "name": "Cubo",
      "rotation": [
        0.2827252745628357,
        0.9584861397743225,
        0.005512102507054806,
        0.03661036491394043
      ],
      "scale": [
        1.0,
        1.0,
        1.0
      ],
      "translation": [
        -0.07235263288021088,
        1.045250415802002,
        -0.00033019197871908545
      ]
    },
    {
      "mesh": 4,
      "name": "Cubo",
      "rotation": [
        -0.1882878988981247,
        -0.6366013288497925,
        0.11189211159944534,
        0.739436686038971
      ],
      "scale": [
        1.0,
        1.0,
        1.0
      ],
      "translation": [
        -0.0022398154251277447,
        0.6659076809883118,
        0.08595401048660278
      ]
    },
    {
      "mesh": 5,
      "name": "Esfera",
      "rotation": [
        -1.5621328230963627e-08,
        2.944229038348567e-08,
        -0.6574018001556396,
        0.7535402178764343
      ],
      "scale": [
        1.0,
        1.0,
        1.0
      ],
      "translation": [
        0.31793615221977234,
        0.5261733531951904,
        0.01033104956150055
      ]
    },
    {
      "mesh": 6,
      "name": "Esfera",
      "rotation": [
        -0.8026875257492065,
        0.26291024684906006,
        -0.07310900092124939,
        0.5303074717521667
      ],
      "scale": [
        1.0,
        1.0,
        1.0
      ],
      "translation": [
        -0.1142890602350235,
        0.809100866317749,
        -0.2945358455181122
      ]
    },
    {
      "mesh": 7,
      "name": "Esfera",
      "rotation": [
        -0.32737526297569275,
        0.6472004055976868,
        0.22836077213287354,
        0.6494678258895874
      ],
      "scale": [
        1.0,
        1.0,
        1.0
      ],
      "translation": [
        -0.14512522518634796,
        1.2185912132263184,
        0.010012499056756496
      ]
    },
    {
      "mesh": 8,
      "name": "Esfera",
      "rotation": [
        0.32294484972953796,
        -0.556520402431488,
        -0.29084888100624084,
        0.7080950140953064
      ],
      "scale": [
        1.0,
        1.0,
        1.0
      ],
      "translation": [
        0.027977537363767624,
        0.9066787958145142,
        0.18989358842372894
      ]
    }
  ],
  "scenes": [
    {
      "nodes": [
        0
      ]
    }
  ]
}
