{
  "accessors": [
    {
      "bufferView": 0,
      "componentType": 5126,
      "count": 88,
      "max": [
        0.12167218327522278,
        0.02228477969765663,
        0.10358977317810059
      ],
      "min": [
        -0.12460865080356598,
        -0.022284746170043945,
        -0.11509844660758972
      ],
      "type": "VEC3"
    },
    {
      "bufferView": 1,
      "componentType": 5126,
      "count": 88,
      "type": "VEC3"
    },
    {
      "bufferView": 2,
      "componentType": 5126,
      "count": 88,
      "type": "VEC2"
    },
    {
      "bufferView": 3,
      "componentType": 5125,
      "count": 132,
      "type": "SCALAR"
    },
    {
      "bufferView": 4,
      "componentType": 5126,
      "count": 88,
      "max": [
        0.12167215347290039,
        0.02228482812643051,
        0.10358971357345581
      ],
      "min": [
        -0.124608613550663,
        -0.022284705191850662,
        -0.11509841680526733
      ],
      "type": "VEC3"
    },
    {
      "bufferView": 5,
      "componentType": 5126,
      "count": 88,
      "type": "VEC3"
    },
    {
      "bufferView": 6,
      "componentType": 5126,
      "count": 88,
      "type": "VEC2"
    },
    {
      "bufferView": 7,
      "componentType": 5125,
      "count": 132,
      "type": "SCALAR"
    },
    {
      "bufferView": 8,
      "componentType": 5126,
      "count": 88,
      "max": [
        0.12167219817638397,
        0.022284746170043945,
        0.10358978807926178
      ],
      "min": [
        -0.12460869550704956,
        -0.022284774109721184,
        -0.11509840190410614
      ],
      "type": "VEC3"
    },
    {
      "bufferView": 9,
      "componentType": 5126,
      "count": 88,
      "type": "VEC3"
    },
    {
      "bufferView": 10,
      "componentType": 5126,
      "count": 88,
      "type": "VEC2"
    },
    {
      "bufferView": 11,
      "componentType": 5125,
      "count": 132,
      "type": "SCALAR"
    },
    {
      "bufferView": 12,
      "componentType": 5126,
      "count": 88,
      "max": [
        0.07531645148992538,
        0.38847458362579346,
        0.07460983842611313
      ],
      "min": [
        -0.07713432610034943,
        -0.3884745240211487,
        -0.08289892971515656
      ],
      "type": "VEC3"
    },
    {
      "bufferView": 13,
      "componentType": 5126,
      "count": 88,
      "type": "VEC3"
    },
    {
      "bufferView": 14,
      "componentType": 5126,
      "count": 88,
      "type": "VEC2"
    },
    {
      "bufferView": 15,
      "componentType": 5125,
      "count": 132,
      "type": "SCALAR"
    },
    {
      "bufferView": 16,
      "componentType": 5126,
      "count": 88,
      "max": [
        0.07531648129224777,
        0.3884747624397278,
        0.07460983842611313
      ],
      "min": [
        -0.07713425904512405,
        -0.3884747624397278,
        -0.08289892971515656
      ],
      "type": "VEC3"
    },
    {
      "bufferView": 17,
      "componentType": 5126,
      "count": 88,
      "type": "VEC3"
    },
    {
      "bufferView": 18,
      "componentType": 5126,
      "count": 88,
      "type": "VEC2"
    },
    {
      "bufferView": 19,
      "componentType": 5125,
      "count": 132,
      "type": "SCALAR"
    },
    {
      "bufferView": 20,
      "componentType": 5126,
      "count": 88,
      "max": [
        0.07531651854515076,
        0.3884746730327606,
        0.07460980117321014
      ],
      "min": [
        -0.07713425159454346,
        -0.38847455382347107,
        -0.08289898931980133
      ],
      "type": "VEC3"
    },
    {
      "bufferView": 21,
      "componentType": 5126,
      "count": 88,
      "type": "VEC3"
    },
    {
      "bufferView": 22,
      "componentType": 5126,
      "count": 88,
      "type": "VEC2"
    },
    {
      "bufferView": 23,
      "componentType": 5125,
      "count": 132,
      "type": "SCALAR"
    },
    {
      "bufferView": 24,
      "componentType": 5126,
      "count": 88,
      "max": [
        0.07531651854515076,
        0.38847479224205017,
        0.07460988312959671
      ],
      "min": [
        -0.07713423669338226,
        -0.38847458362579346,
        -0.08289891481399536
      ],
      "type": "VEC3"
    },
    {
      "bufferView": 25,
      "componentType": 5126,
      "count": 88,
      "type": "VEC3"
    },
    {
      "bufferView": 26,
      "componentType": 5126,
      "count": 88,
      "type": "VEC2"
    },
    {
      "bufferView": 27,
      "componentType": 5125,
      "count": 132,
      "type": "SCALAR"
    },
    {
      "bufferView": 28,
      "componentType": 5126,
      "count": 88,
      "max": [
        0.12167218327522278,
        0.0222847368568182,
        0.1035897433757782
      ],
      "min": [
        -0.12460870295763016,
        -0.022284794598817825,
        -0.11509847640991211
      ],
      "type": "VEC3"
    },
    {
      "bufferView": 29,
      "componentType": 5126,
      "count": 88,
      "type": "VEC3"
    },
    {
      "bufferView": 30,
      "componentType": 5126,
      "count": 88,
      "type": "VEC2"
    },
    {
      "bufferView": 31,
      "componentType": 5125,
      "count": 132,
      "type": "SCALAR"
    },
    {
      "bufferView": 32,
      "componentType": 5126,
      "count": 56,
      "max": [
        0.2167862355709076,
        0.19181860983371735,
        0.14708659052848816
      ],
      "min": [
        -0.43022051453590393,
        -0.03715704381465912,
        -0.14708657562732697
      ],
      "type": "VEC3"
    },
    {
      "bufferView": 33,
      "componentType": 5126,
      "count": 56,
      "type": "VEC3"
    },
    {
      "bufferView": 34,
      "componentType": 5126,
      "count": 56,
      "type": "VEC2"
    },
    {
      "bufferView": 35,
      "componentType": 5125,
      "count": 84,
      "type": "SCALAR"
    },
    {
      "bufferView": 36,
      "componentType": 5126,
      "count": 24,
      "max": [
        0.2167862057685852,
        0.03715702146291733,
        0.10143791139125824
      ],
      "min": [
        -0.2167862057685852,
        -0.0371570810675621,
        -0.10143803060054779
      ],
      "type": "VEC3"
    },
    {
      "bufferView": 37,
      "componentType": 5126,
      "count": 24,
      "type": "VEC3"
    },
    {
      "bufferView": 38,
      "componentType": 5126,
      "count": 24,
      "type": "VEC2"
    },
    {
      "bufferView": 39,
      "componentType": 5125,
      "count": 36,
      "type": "SCALAR"
    },
    {
      "bufferView": 40,
      "componentType": 5126,
      "count": 24,
      "max": [
        0.2167862057685852,
        0.037157051265239716,
        0.10143797099590302
      ],
      "min": [
        -0.2167862057685852,
        -0.037157051265239716,
        -0.10143797099590302
      ],
      "type": "VEC3"
    },
    {
      "bufferView": 41,
      "componentType": 5126,
      "count": 24,
      "type": "VEC3"
    },
    {
      "bufferView": 42,
      "componentType": 5126,
      "count": 24,
      "type": "VEC2"
    },
    {
      "bufferView": 43,
      "componentType": 5125,
      "count": 36,
      "type": "SCALAR"
    },
    {
      "bufferView": 44,
      "componentType": 5126,
      "count": 692,
      "max": [
        0.12526816129684448,
        0.4451642632484436,
        0.4941689372062683
      ],
      "min": [
        -0.1252681314945221,
        -0.27046260237693787,
        -1.3472553491592407
      ],
      "type": "VEC3"
    },
    {
      "bufferView": 45,
      "componentType": 5126,
      "count": 692,
      "type": "VEC3"
    },
    {
      "bufferView": 46,
      "componentType": 5126,
      "count": 692,
      "type": "VEC2"
    },
    {
      "bufferView": 47,
      "componentType": 5125,
      "count": 1038,
      "type": "SCALAR"
    },
    {
      "bufferView": 48,
      "componentType": 5126,
      "count": 24,
      "max": [
        0.7666667103767395
      ],
      "min": [
        0.0
      ],
      "type": "SCALAR"
    },
    {
      "bufferView": 49,
      "componentType": 5126,
      "count": 24,
      "type": "VEC3"
    },
    {
      "bufferView": 50,
      "componentType": 5126,
      "count": 24,
      "max": [
        0.7666667103767395
      ],
      "min": [
        0.0
      ],
      "type": "SCALAR"
    },
    {
      "bufferView": 51,
      "componentType": 5126,
      "count": 24,
      "type": "VEC3"
    },
    {
      "bufferView": 52,
      "componentType": 5126,
      "count": 24,
      "max": [
        0.7666667103767395
      ],
      "min": [
        0.0
      ],
      "type": "SCALAR"
    },
    {
      "bufferView": 53,
      "componentType": 5126,
      "count": 24,
      "type": "VEC4"
    },
    {
      "bufferView": 54,
      "componentType": 5126,
      "count": 24,
      "max": [
        0.7666667103767395
      ],
      "min": [
        0.0
      ],
      "type": "SCALAR"
    },
    {
      "bufferView": 55,
      "componentType": 5126,
      "count": 24,
      "type": "VEC4"
    }
  ],
  "animations": [
    {
      "channels": [
        {
          "sampler": 0,
          "target": {
            "node": 0,
            "path": "translation"
          }
        },
        {
          "sampler": 1,
          "target": {
            "node": 14,
            "path": "translation"
          }
        },
        {
          "sampler": 2,
          "target": {
            "node": 0,
            "path": "rotation"
          }
        },
        {
          "sampler": 3,
          "target": {
            "node": 14,
            "path": "rotation"
          }
        }
      ],
      "name": "Animation",
      "samplers": [
        {
          "input": 48,
          "interpolation": "LINEAR",
          "output": 49
        },
        {
          "input": 50,
          "interpolation": "LINEAR",
          "output": 51
        },
        {
          "input": 52,
          "interpolation": "LINEAR",
          "output": 53
        },
        {
          "input": 54,
          "interpolation": "LINEAR",
          "output": 55
        }
      ]
    }
  ],
  "asset": {
    "generator": "Prisma3D Pro",
    "version": "2.0"
  },
  "bufferViews": [
    {
      "buffer": 0,
      "byteLength": 1056,
      "target": 34962
    },
    {
      "buffer": 1,
      "byteLength": 1056,
      "target": 34962
    },
    {
      "buffer": 2,
      "byteLength": 704,
      "target": 34962
    },
    {
      "buffer": 3,
      "byteLength": 528,
      "target": 34963
    },
    {
      "buffer": 4,
      "byteLength": 1056,
      "target": 34962
    },
    {
      "buffer": 5,
      "byteLength": 1056,
      "target": 34962
    },
    {
      "buffer": 6,
      "byteLength": 704,
      "target": 34962
    },
    {
      "buffer": 7,
      "byteLength": 528,
      "target": 34963
    },
    {
      "buffer": 8,
      "byteLength": 1056,
      "target": 34962
    },
    {
      "buffer": 9,
      "byteLength": 1056,
      "target": 34962
    },
    {
      "buffer": 10,
      "byteLength": 704,
      "target": 34962
    },
    {
      "buffer": 11,
      "byteLength": 528,
      "target": 34963
    },
    {
      "buffer": 12,
      "byteLength": 1056,
      "target": 34962
    },
    {
      "buffer": 13,
      "byteLength": 1056,
      "target": 34962
    },
    {
      "buffer": 14,
      "byteLength": 704,
      "target": 34962
    },
    {
      "buffer": 15,
      "byteLength": 528,
      "target": 34963
    },
    {
      "buffer": 16,
      "byteLength": 1056,
      "target": 34962
    },
    {
      "buffer": 17,
      "byteLength": 1056,
      "target": 34962
    },
    {
      "buffer": 18,
      "byteLength": 704,
      "target": 34962
    },
    {
      "buffer": 19,
      "byteLength": 528,
      "target": 34963
    },
    {
      "buffer": 20,
      "byteLength": 1056,
      "target": 34962
    },
    {
      "buffer": 21,
      "byteLength": 1056,
      "target": 34962
    },
    {
      "buffer": 22,
      "byteLength": 704,
      "target": 34962
    },
    {
      "buffer": 23,
      "byteLength": 528,
      "target": 34963
    },
    {
      "buffer": 24,
      "byteLength": 1056,
      "target": 34962
    },
    {
      "buffer": 25,
      "byteLength": 1056,
      "target": 34962
    },
    {
      "buffer": 26,
      "byteLength": 704,
      "target": 34962
    },
    {
      "buffer": 27,
      "byteLength": 528,
      "target": 34963
    },
    {
      "buffer": 28,
      "byteLength": 1056,
      "target": 34962
    },
    {
      "buffer": 29,
      "byteLength": 1056,
      "target": 34962
    },
    {
      "buffer": 30,
      "byteLength": 704,
      "target": 34962
    },
    {
      "buffer": 31,
      "byteLength": 528,
      "target": 34963
    },
    {
      "buffer": 32,
      "byteLength": 672,
      "target": 34962
    },
    {
      "buffer": 33,
      "byteLength": 672,
      "target": 34962
    },
    {
      "buffer": 34,
      "byteLength": 448,
      "target": 34962
    },
    {
      "buffer": 35,
      "byteLength": 336,
      "target": 34963
    },
    {
      "buffer": 36,
      "byteLength": 288,
      "target": 34962
    },
    {
      "buffer": 37,
      "byteLength": 288,
      "target": 34962
    },
    {
      "buffer": 38,
      "byteLength": 192,
      "target": 34962
    },
    {
      "buffer": 39,
      "byteLength": 144,
      "target": 34963
    },
    {
      "buffer": 40,
      "byteLength": 288,
      "target": 34962
    },
    {
      "buffer": 41,
      "byteLength": 288,
      "target": 34962
    },
    {
      "buffer": 42,
      "byteLength": 192,
      "target": 34962
    },
    {
      "buffer": 43,
      "byteLength": 144,
      "target": 34963
    },
    {
      "buffer": 44,
      "byteLength": 8304,
      "target": 34962
    },
    {
      "buffer": 45,
      "byteLength": 8304,
      "target": 34962
    },
    {
      "buffer": 46,
      "byteLength": 5536,
      "target": 34962
    },
    {
      "buffer": 47,
      "byteLength": 4152,
      "target": 34963
    },
    {
      "buffer": 48,
      "byteLength": 96
    },
    {
      "buffer": 49,
      "byteLength": 288
    },
    {
      "buffer": 50,
      "byteLength": 96
    },
    {
      "buffer": 51,
      "byteLength": 288
    },
    {
      "buffer": 52,
      "byteLength": 96
    },
    {
      "buffer": 53,
      "byteLength": 384
    },
    {
      "buffer": 54,
      "byteLength": 96
    },
    {
      "buffer": 55,
      "byteLength": 384
    }
  ],
  "buffers": [
    {
      "byteLength": 1056,
      "uri": "data:application/octet-stream;base64,"
    },
    {
      "byteLength": 1056,
      "uri": "data:application/octet-stream;base64,"
    },
    {
      "byteLength": 704,
      "uri": "data:application/octet-stream;base64,"
    },
    {
      "byteLength": 528,
      "uri": "data:application/octet-stream;base64,"
    },
    {
      "byteLength": 1056,
      "uri": "data:application/octet-stream;base64,"
    },
    {
      "byteLength": 1056,
      "uri": "data:application/octet-stream;base64,"
    },
    {
      "byteLength": 704,
      "uri": "data:application/octet-stream;base64,"
    },
    {
      "byteLength": 528,
      "uri": "data:application/octet-stream;base64,"
    },
    {
      "byteLength": 1056,
      "uri": "data:application/octet-stream;base64,"
    },
    {
      "byteLength": 1056,
      "uri": "data:application/octet-stream;base64,"
    },
    {
      "byteLength": 704,
      "uri": "data:application/octet-stream;base64,"
    },
    {
      "byteLength": 528,
      "uri": "data:application/octet-stream;base64,"
    },
    {
      "byteLength": 1056,
      "uri": "data:application/octet-stream;base64,"
    },
    {
      "byteLength": 1056,
      "uri": "data:application/octet-stream;base64,"
    },
    {
      "byteLength": 704,
      "uri": "data:application/octet-stream;base64,"
    },
    {
      "byteLength": 528,
      "uri": "data:application/octet-stream;base64,"
    },
    {
      "byteLength": 1056,
      "uri": "data:application/octet-stream;base64,"
    },
    {
      "byteLength": 1056,
      "uri": "data:application/octet-stream;base64,"
    },
    {
      "byteLength": 704,
      "uri": "data:application/octet-stream;base64,"
    },
    {
      "byteLength": 528,
      "uri": "data:application/octet-stream;base64,"
    },
    {
      "byteLength": 1056,
      "uri": "data:application/octet-stream;base64,"
    },
    {
      "byteLength": 1056,
      "uri": "data:application/octet-stream;base64,"
    },
    {
      "byteLength": 704,
      "uri": "data:application/octet-stream;base64,"
    },
    {
      "byteLength": 528,
      "uri": "data:application/octet-stream;base64,"
    },
    {
      "byteLength": 1056,
      "uri": "data:application/octet-stream;base64,"
    },
    {
      "byteLength": 1056,
      "uri": "data:application/octet-stream;base64,"
    },
    {
      "byteLength": 704,
      "uri": "data:application/octet-stream;base64,"
    },
    {
      "byteLength": 528,
      "uri": "data:application/octet-stream;base64,"
    },
    {
      "byteLength": 1056,
      "uri": "data:application/octet-stream;base64,"
    },
    {
      "byteLength": 1056,
      "uri": "data:application/octet-stream;base64,"
    },
    {
      "byteLength": 704,
      "uri": "data:application/octet-stream;base64,"
    },
    {
      "byteLength": 528,
      "uri": "data:application/octet-stream;base64,"
    },
    {
      "byteLength": 672,
      "uri": "data:application/octet-stream;base64,"
    },
    {
      "byteLength": 672,
      "uri": "data:application/octet-stream;base64,"
    },
    {
      "byteLength": 448,
      "uri": "data:application/octet-stream;base64,"
    },
    {
      "byteLength": 336,
      "uri": "data:application/octet-stream;base64,"
    },
    {
      "byteLength": 288,
      "uri": "data:application/octet-stream;base64,"
    },
    {
      "byteLength": 288,
      "uri": "data:application/octet-stream;base64,"
    },
    {
      "byteLength": 192,
      "uri": "data:application/octet-stream;base64,"
    },
    {
      "byteLength": 144,
      "uri": "data:application/octet-stream;base64,"
    },
    {
      "byteLength": 288,
      "uri": "data:application/octet-stream;base64,"
    },
    {
      "byteLength": 288,
      "uri": "data:application/octet-stream;base64,"
    },
    {
      "byteLength": 192,
      "uri": "data:application/octet-stream;base64,"
    },
    {
      "byteLength": 144,
      "uri": "data:application/octet-stream;base64,"
    },
    {
      "byteLength": 8304,
      "uri": "data:application/octet-stream;base64,"
    },
    {
      "byteLength": 8304,
      "uri": "data:application/octet-stream;base64,"
    },
    {
      "byteLength": 5536,
      "uri": "data:application/octet-stream;base64,"
    },
    {
      "byteLength": 4152,
      "uri": "data:application/octet-stream;base64,"
    },
    {
      "byteLength": 96,
      "uri": "data:application/octet-stream;base64,"
    },
    {
      "byteLength": 288,
      "uri": "data:application/octet-stream;base64,"
    },
    {
      "byteLength": 96,
      "uri": "data:application/octet-stream;base64,"
    },
    {
      "byteLength": 288,
      "uri": "data:application/octet-stream;base64,"
    },
    {
      "byteLength": 96,
      "uri": "data:application/octet-stream;base64,"
    },
    {
      "byteLength": 384,
      "uri": "data:application/octet-stream;base64,"
    },
    {
      "byteLength": 96,
      "uri": "data:application/octet-stream;base64,"
    },
    {
      "byteLength": 384,
      "uri": "data:application/octet-stream;base64,"
    }
  ],
  "materials": [
    {
      "doubleSided": true,
      "pbrMetallicRoughness": {
        "baseColorFactor": [
          0.2078431397676468,
          0.2078431397676468,
          0.2078431397676468,
          1.0
        ],
        "metallicFactor": 0.0,
        "roughnessFactor": 0.0
      }
    },
    {
      "doubleSided": true,
      "pbrMetallicRoughness": {
        "baseColorFactor": [
          0.2078431397676468,
          0.2078431397676468,
          0.2078431397676468,
          1.0
        ],
        "metallicFactor": 0.0,
        "roughnessFactor": 0.0
      }
    },
    {
      "doubleSided": true,
      "pbrMetallicRoughness": {
        "baseColorFactor": [
          0.2078431397676468,
          0.2078431397676468,
          0.2078431397676468,
          1.0
        ],
        "metallicFactor": 0.0,
        "roughnessFactor": 0.0
      }
    },
    {
      "doubleSided": true,
      "pbrMetallicRoughness": {
        "baseColorFactor": [
          0.4055768847465515,
          0.4055768847465515,
          0.4055768847465515,
          1.0
        ],
        "metallicFactor": 0.0,
        "roughnessFactor": 0.0
      }
    },
    {
      "doubleSided": true,
      "pbrMetallicRoughness": {
        "baseColorFactor": [
          0.6322843432426453,
          0.6322843432426453,
          0.6322843432426453,
          1.0
        ],
        "metallicFactor": 0.0,
        "roughnessFactor": 0.0
      }
    },
    {
      "doubleSided": true,
      "pbrMetallicRoughness": {
        "baseColorFactor": [
          0.4941176474094391,
          0.4941176474094391,
          0.4941176474094391,
          1.0
        ],
        "metallicFactor": 0.0,
        "roughnessFactor": 0.0
      }
    },
    {
      "doubleSided": true,
      "pbrMetallicRoughness": {
        "baseColorFactor": [
          0.4117647111415863,
          0.4117647111415863,
          0.4117647111415863,
          1.0
        ],
        "metallicFactor": 0.0,
        "roughnessFactor": 0.0
      }
    },
    {
      "doubleSided": true,
      "pbrMetallicRoughness": {
        "baseColorFactor": [
          0.2078431397676468,
          0.2078431397676468,
          0.2078431397676468,
          1.0
        ],
        "metallicFactor": 0.0,
        "roughnessFactor": 0.0
      }
    },
    {
      "doubleSided": true,
      "pbrMetallicRoughness": {
        "baseColorFactor": [
          0.2078431397676468,
          0.2078431397676468,
          0.2078431397676468,
          1.0
        ],
        "metallicFactor": 0.0,
        "roughnessFactor": 0.0
      }
    },
    {
      "doubleSided": true,
      "pbrMetallicRoughness": {
        "baseColorFactor": [
          0.2078431397676468,
          0.2078431397676468,
          0.2078431397676468,
          1.0
        ],
        "metallicFactor": 0.0,
        "roughnessFactor": 0.0
      }
    },
    {
      "doubleSided": true,
      "pbrMetallicRoughness": {
        "baseColorFactor": [
          0.2078431397676468,
          0.2078431397676468,
          0.2078431397676468,
          1.0
        ],
        "metallicFactor": 0.0,
        "roughnessFactor": 0.0
      }
    },
    {
      "doubleSided": true,
      "pbrMetallicRoughness": {
        "baseColorFactor": [
          0.20392157137393951,
          0.21960784494876862,
          0.20000000298023224,
          1.0
        ],
        "metallicFactor": 0.0,
        "roughnessFactor": 0.0
      }
    }
  ],
  "meshes": [
    {
      "primitives": [
        {
          "attributes": {
            "NORMAL": 1,
            "POSITION": 0,
            "TEXCOORD_0": 2
          },
          "indices": 3,
          "material": 0,
          "mode": 4
        }
      ]
    },
    {
      "primitives": [
        {
          "attributes": {
            "NORMAL": 5,
            "POSITION": 4,
            "TEXCOORD_0": 6
          },
          "indices": 7,
          "material": 1,
          "mode": 4
        }
      ]
    },
    {
      "primitives": [
        {
          "attributes": {
            "NORMAL": 9,
            "POSITION": 8,
            "TEXCOORD_0": 10
          },
          "indices": 11,
          "material": 2,
          "mode": 4
        }
      ]
    },
    {
      "primitives": [
        {
          "attributes": {
            "NORMAL": 13,
            "POSITION": 12,
            "TEXCOORD_0": 14
          },
          "indices": 15,
          "material": 3,
          "mode": 4
        }
      ]
    },
    {
      "primitives": [
        {
          "attributes": {
            "NORMAL": 17,
            "POSITION": 16,
            "TEXCOORD_0": 18
          },
          "indices": 19,
          "material": 4,
          "mode": 4
        }
      ]
    },
    {
      "primitives": [
        {
          "attributes": {
            "NORMAL": 21,
            "POSITION": 20,
            "TEXCOORD_0": 22
          },
          "indices": 23,
          "material": 5,
          "mode": 4
        }
      ]
    },
    {
      "primitives": [
        {
          "attributes": {
            "NORMAL": 25,
            "POSITION": 24,
            "TEXCOORD_0": 26
          },
          "indices": 27,
          "material": 6,
          "mode": 4
        }
      ]
    },
    {
      "primitives": [
        {
          "attributes": {
            "NORMAL": 29,
            "POSITION": 28,
            "TEXCOORD_0": 30
          },
          "indices": 31,
          "material": 7,
          "mode": 4
        }
      ]
    },
    {
      "primitives": [
        {
          "attributes": {
            "NORMAL": 33,
            "POSITION": 32,
            "TEXCOORD_0": 34
          },
          "indices": 35,
          "material": 8,
          "mode": 4
        }
      ]
    },
    {
      "primitives": [
        {
          "attributes": {
            "NORMAL": 37,
            "POSITION": 36,
            "TEXCOORD_0": 38
          },
          "indices": 39,
          "material": 9,
          "mode": 4
        }
      ]
    },
    {
      "primitives": [
        {
          "attributes": {
            "NORMAL": 41,
            "POSITION": 40,
            "TEXCOORD_0": 42
          },
          "indices": 43,
          "material": 10,
          "mode": 4
        }
      ]
    },
    {
      "primitives": [
        {
          "attributes": {
            "NORMAL": 45,
            "POSITION": 44,
            "TEXCOORD_0": 46
          },
          "indices": 47,
          "material": 11,
          "mode": 4
        }
      ]
    }
  ],
  "nodes": [
    {
      "children": [
        14,
        13,
        12,
        11,
        1
      ],
      "name": "torreta",
      "rotation": [
        0.0,
        -0.6431413292884827,
        -0.0,
        0.7657474875450134
      ],
      "scale": [
        1.0,
        1.0,
        1.0
      ],
      "translation": [
        -0.0,
        -0.02685028314590454,
        0.0
      ]
    },
    {
      "children": [
        5,
        4,
        3,
        2
      ],
      "name": "Grupo",
      "rotation": [
        0.0,
        -0.0,
        -0.0,
        1.0
      ],
      "scale": [
        1.0,
        1.0,
        1.0
      ],
      "translation": [
        -0.0,
        0.0,
        0.0
      ]
    },
    {
      "mesh": 0,
      "name": "Cubo",
      "rotation": [
        -0.029062118381261826,
        0.05142761766910553,
        -0.2627209722995758,
        -0.9630619287490845
      ],
      "scale": [
        1.0,
        1.0,
        1.0
      ],
      "translation": [
        0.22843684256076813,
        -0.01392928697168827,
        -0.010221265256404877
      ]
    },
    {
      "mesh": 1,
      "name": "Cubo",
      "rotation": [
        0.05800731107592583,
        -0.03269781544804573,
        -0.2749163806438446,
        0.9591595530509949
      ],
      "scale": [
        1.0,
        1.0,
        1.0
      ],
      "translation": [
        -0.40898317098617554,
        -0.009014025330543518,
        -0.007159180007874966
      ]
    },
    {
      "mesh": 2,
      "name": "Cubo",
      "rotation": [
        -0.24150356650352478,
        0.0008860126254148781,
        -0.0035591518972069025,
        0.9703930020332336
      ],
      "scale": [
        1.0,
        1.0,
        1.0
      ],
      "translation": [
        -0.03510947898030281,
        0.018503783270716667,
        0.36541947722435
      ]
    },
    {
      "children": [
        10,
        9,
        8,
        7,
        6
      ],
      "name": "Grupo",
      "rotation": [
        0.0,
        -0.0,
        -0.0,
        1.0
      ],
      "scale": [
        1.0,
        1.0,
        1.0
      ],
      "translation": [
        -0.0,
        0.0,
        0.0
      ]
    },
    {
      "mesh": 3,
      "name": "Cubo",
      "rotation": [
        -1.4901161193847656e-08,
        -2.220446049250313e-16,
        -0.2258978933095932,
        0.9741510152816772
      ],
      "scale": [
        1.0,
        1.0,
        1.0
      ],
      "translation": [
        -0.2189667671918869,
        0.3530336022377014,
        0.0
      ]
    },
    {
      "mesh": 4,
      "name": "Cubo",
      "rotation": [
        1.8504696441823398e-08,
        2.7401991786746294e-10,
        -0.17802996933460236,
        -0.9840250611305237
      ],
      "scale": [
        1.0,
        1.0,
        1.0
      ],
      "translation": [
        0.08490712195634842,
        0.36046475172042847,
        1.8961332504119355e-09
      ]
    },
    {
      "mesh": 5,
      "name": "Cubo",
      "rotation": [
        -0.25255832076072693,
        -0.003155745333060622,
        0.012089371681213379,
        0.9675010442733765
      ],
      "scale": [
        1.0,
        1.0,
        1.0
      ],
      "translation": [
        -0.037146590650081635,
        0.3601754903793335,
        0.17939244210720062
      ]
    },
    {
      "mesh": 6,
      "name": "Cubo",
      "rotation": [
        0.2295687049627304,
        -0.0008420411613769829,
        -0.0035698115825653076,
        0.9732856154441833
      ],
      "scale": [
        1.0,
        1.0,
        1.0
      ],
      "translation": [
        -0.0682310238480568,
        0.36303070187568665,
        -0.16063593327999115
      ]
    },
    {
      "mesh": 7,
      "name": "Cubo",
      "rotation": [
        0.2295687347650528,
        -0.0008419751538895071,
        -0.0035698190331459045,
        0.9732856154441833
      ],
      "scale": [
        1.0,
        1.0,
        1.0
      ],
      "translation": [
        -0.07072360813617706,
        0.023248864337801933,
        -0.3303719460964203
      ]
    },
    {
      "mesh": 8,
      "name": "Cubo",
      "rotation": [
        0.0,
        -0.0,
        -0.0,
        1.0
      ],
      "scale": [
        1.0,
        1.0,
        1.0
      ],
      "translation": [
        -0.0,
        0.7546994686126709,
        0.0
      ]
    },
    {
      "mesh": 9,
      "name": "Cubo",
      "rotation": [
        0.7111838459968567,
        -9.222122798746568e-08,
        7.636339205419063e-08,
        0.7030060887336731
      ],
      "scale": [
        1.0,
        1.0,
        1.0
      ],
      "translation": [
        4.755758453711678e-08,
        0.8561102747917175,
        -0.14783787727355957
      ]
    },
    {
      "mesh": 10,
      "name": "Cubo",
      "rotation": [
        0.7111838459968567,
        -9.222122798746568e-08,
        7.636339205419063e-08,
        0.7030060887336731
      ],
      "scale": [
        1.0,
        1.0,
        1.0
      ],
      "translation": [
        -3.319954444691575e-08,
        0.8530448079109192,
        0.1171405017375946
      ]
    },
    {
      "mesh": 11,
      "name": "Cubo",
      "rotation": [
        0.03440084308385849,
        0.698787271976471,
        -0.03267235681414604,
        0.7137544751167297
      ],
      "scale": [
        1.0,
        1.0,
        1.0
      ],
      "translation": [
        0.24901314079761505,
        0.677240788936615,
        0.007165106013417244
      ]
    }
  ],
  "scenes": [
    {
      "nodes": [
        0
      ]
    }
  ]
}
